<?xml version="1.0" encoding="utf-8"?>
<!-- Generator: Adobe Illustrator 24.0.2, SVG Export Plug-In . SVG Version: 6.00 Build 0)  -->
<svg version="1.1" id="Layer_1" focusable="false" xmlns="http://www.w3.org/2000/svg" xmlns:xlink="http://www.w3.org/1999/xlink"
	 x="0px" y="0px" viewBox="0 0 220 134.2" style="enable-background:new 0 0 220 134.2;" xml:space="preserve">
<style type="text/css">
	.st0{fill:#FFFFFF;}
</style>
<path class="st0" d="M92.9,92.6l85.5-85.5c9.5-9.5,25-9.5,34.5,0l0,0c9.5,9.5,9.5,25,0,34.5l-85.5,85.5c-9.5,9.5-25,9.5-34.5,0l0,0
	C83.4,117.6,83.4,102.1,92.9,92.6z"/>
<path class="st0" d="M127.1,92.6L41.6,7.1c-9.5-9.5-25-9.5-34.5,0l0,0c-9.5,9.5-9.5,25,0,34.5l85.5,85.5c9.5,9.5,25,9.5,34.5,0l0,0
	C136.6,117.6,136.6,102.1,127.1,92.6z"/>
</svg>
