<?xml version="1.0" encoding="utf-8"?>
<!-- Generator: Adobe Illustrator 24.1.1, SVG Export Plug-In . SVG Version: 6.00 Build 0)  -->
<svg version="1.1" id="Capa_1" xmlns="http://www.w3.org/2000/svg" xmlns:xlink="http://www.w3.org/1999/xlink" x="0px" y="0px"
	 viewBox="0 0 512 512" style="enable-background:new 0 0 512 512;" xml:space="preserve">
<style type="text/css">
	.st0{fill:#FFE274;}
</style>
<circle class="st0" cx="256.8" cy="256" r="256"/>
<g>
	<g>
		<g>
			<path d="M149.7,293.2c-4.6,0-8.9,2.2-11.5,5.8l-7.7,11c-1.5,2.1-2.3,4.7-2.3,7.3v3c0,7.2,6.2,13.1,13.8,13.1
				c4.6,0,8.9-2.2,11.5-5.8l7.7-11c1.5-2.1,2.3-4.7,2.3-7.3v-3C163.4,299,157.3,293.2,149.7,293.2z"/>
		</g>
	</g>
	<g>
		<g>
			<path d="M177.8,306.6h-0.5c-4.3,0-8.4,1.9-11,5.2l-14.2,18.1c-1.8,2.3-2.8,5-2.8,7.8v2.6c0,7.2,6.2,13.1,13.8,13.1h0.5
				c4.3,0,8.4-1.9,11-5.2l14.2-18.1c1.8-2.3,2.8-5,2.8-7.8v-2.6C191.6,312.4,185.5,306.6,177.8,306.6z"/>
		</g>
	</g>
	<g>
		<g>
			<path d="M206,320h-0.5c-4.3,0-8.4,1.9-11,5.2l-14.2,18.1c-1.8,2.3-2.8,5-2.8,7.8v2.6c0,7.2,6.2,13.1,13.8,13.1h0.5
				c4.3,0,8.4-1.9,11-5.2l14.2-18.1c1.8-2.3,2.8-5,2.8-7.8v-2.6C219.8,325.8,213.6,320,206,320z"/>
		</g>
	</g>
	<g>
		<g>
			<path d="M234.2,333.4h-0.5c-4.3,0-8.4,1.9-11,5.2l-14.2,18.1c-1.8,2.3-2.8,5-2.8,7.8v2.6c0,7.2,6.2,13.1,13.8,13.1h0.5
				c4.3,0,8.4-1.9,11-5.2l14.2-18.1c1.8-2.3,2.7-5,2.7-7.8v-2.6h0C248,339.2,241.8,333.4,234.2,333.4z"/>
		</g>
	</g>
	<g>
		<g>
			<path d="M270.3,373.3L257.5,363c-0.4,0.6-0.6,1.4-1.1,2l-9.1,11.5l9.5,8.4c3,2.9,7.5,2.7,10.1,0.2
				C270.5,381.6,271.9,375.2,270.3,373.3z"/>
		</g>
	</g>
	<g>
		<g>
			<path d="M377.5,312.8L275,227.5c-9,4.8-23.6,16.4-34.7,25.2c-3.4,2.7-6.5,5.2-9.2,7.3c-5.5,4.3-12.2,6.5-19.3,6.5h-5.6
				c-11.7,0-22.1-6.2-27.3-16.1c-5.9-11.2-3.6-24.7,5.7-33.5l39.3-36.9c2-1.2,4.1-2.4,6.1-3.7c-22.1-4.3-47.2-4.6-75.2-0.4
				c-14.2,2.2-28.5-1.6-39.5-10.2L86,153.5v129.2l36.6,14.5l3.9-5.6c5.2-7.4,13.8-11.8,23.2-11.8c10.5,0,19.5,5.6,24.3,13.8
				c1.1-0.1,2.2-0.4,3.4-0.4c10.8,0,20,5.6,24.8,13.8c1.2-0.1,2.3-0.4,3.4-0.4c10.8,0,20,5.6,24.8,13.8c1.1-0.1,2.3-0.4,3.4-0.4h0.5
				c15.4,0,27.8,11.9,27.8,26.5v2.6l17.7,14.3c0,0,0,0,0.1,0.1l6.7,5.4c3.9,3,9,4.7,14.3,4.7c5.8,0,10.6-4.5,10.6-10
				c0-3-1.4-5.8-3.8-7.7L243.4,305c-3-2.4-3.4-6.6-0.9-9.4c2.5-2.8,6.9-3.2,9.9-0.8l79.2,62.7c2.2,1.7,4.9,2.7,7.7,2.7h2.1
				c6.7,0,12.1-5.2,12.1-11.5c0-3.3-1.5-6.5-4.1-8.7l-77.9-61.7c-3-2.4-3.4-6.6-0.9-9.4c2.5-2.9,6.9-3.2,9.9-0.9l77.6,61.5
				c0.1,0.1,0.3,0.2,0.4,0.3l1.2,0.9c2.2,1.8,5,2.7,7.8,2.7h1.9c6.7,0,12.3-5.2,12.3-11.6C381.8,318.3,380.2,315.1,377.5,312.8z"/>
		</g>
	</g>
	<g>
		<g>
			<path d="M374.3,184.5c-1,0.8-2.2,1.4-3.5,1.5c-28.3,4.1-48.7-2.3-65.1-7.4c-10.1-3.1-18.7-5.9-27.5-5.9
				c-14.8,0-26.3,7.2-37.4,14.1c-2.6,1.6-5.1,3.2-7.6,4.6l-36.7,34.9c-5,4.8-6.3,12.1-3.1,18.1c2.8,5.3,8.5,8.7,14.7,8.7h5.6
				c3.8,0,7.4-1.2,10.4-3.5c2.7-2.1,5.8-4.5,9.1-7.2c18-14.3,32.6-25.6,42.4-29.1c0.8-0.3,1.6-0.4,2.5-0.4c1.7,0,3.3,0.6,4.6,1.6
				l101.8,83.9l41.5-15.6V153.8L374.3,184.5z"/>
		</g>
	</g>
</g>
</svg>
