<svg id="Layer_1" data-name="Layer 1" xmlns="http://www.w3.org/2000/svg" viewBox="0 0 384 384"><defs><style>.cls-1{fill:#ffe274;}</style></defs><title>donation</title><circle class="cls-1" cx="192" cy="192" r="192"/><path d="M184.17,128.64l25.07,6.6A4,4,0,0,1,212.3,139a4.07,4.07,0,0,1-4.21,3.88H191.65a13.65,13.65,0,0,1-5.17-1,6.64,6.64,0,0,0-7.07.93l-8.77,8.08a5.11,5.11,0,0,0-1,1.23,5.27,5.27,0,0,0,1.76,7.25l0,0a38.76,38.76,0,0,0,15.94,5.31v8.17c0,4.06,3.61,7.39,8,7.39h8c4.41,0,8-3.33,8-7.39V164.7c15.2-1.66,26.71-14.31,24.7-29.09-1.45-10.62-10.37-19.07-21.5-22L189.54,107a4,4,0,0,1-3.06-3.74,4.07,4.07,0,0,1,4.21-3.88h16.44a13.79,13.79,0,0,1,5.19,1,6.62,6.62,0,0,0,7.06-.93l8.78-8.08a5.3,5.3,0,0,0-.73-8.46l-.05,0a38.76,38.76,0,0,0-15.94-5.31V69.39c0-4.07-3.61-7.39-8-7.39h-8c-4.41,0-8,3.32-8,7.39v8.13c-15.19,1.66-26.72,14.31-24.71,29.09C164.12,117.23,173.06,125.68,184.17,128.64ZM320,213.51c-5.45-4.94-14-4.61-19.67,0L257.7,247.64a29.41,29.41,0,0,1-18.48,6.47H184.61a7.39,7.39,0,1,1,0-14.78h36.15c7.34,0,14.18-5,15.36-12.28a15.33,15.33,0,0,0,.21-2.53,14.78,14.78,0,0,0-14.78-14.75H147.66a54.34,54.34,0,0,0-34.21,12.14L92,239.33H66.39A7.39,7.39,0,0,0,59,246.72v44.33a7.39,7.39,0,0,0,7.39,7.39H231.14A29.56,29.56,0,0,0,249.61,292l69.84-55.87a14.77,14.77,0,0,0,2.31-20.77,14.09,14.09,0,0,0-1.72-1.82Z"/></svg>