<?xml version="1.0" encoding="utf-8"?>
<!-- Generator: Adobe Illustrator 23.1.0, SVG Export Plug-In . SVG Version: 6.00 Build 0)  -->
<svg version="1.1" id="Capa_1" xmlns="http://www.w3.org/2000/svg" xmlns:xlink="http://www.w3.org/1999/xlink" x="0px" y="0px"
	 viewBox="0 0 476.2 512" style="enable-background:new 0 0 476.2 512;" xml:space="preserve">
<g>
	<g>
		<path d="M177.8,115.9c-8.2-8.4-19.7-13.7-32.5-13.7c-13.9,0-86.1,0-100.2,0C20.4,102.2,0.2,122,0,146.4v137.7
			c0,10.4,8.4,18.7,18.8,18.7s18.8-8.4,18.8-18.7V146.5l0,0c0-2.2,1.8-4.1,4.1-4c2.2,0,4.1,1.8,4.1,4.1v135.3l0,0v179.8
			c0,12.4,10.1,22.5,22.5,22.5s22.5-10.1,22.5-22.5V281.9h9.7v179.8c0,12.4,10.1,22.5,22.5,22.5s22.5-10.1,22.5-22.5V341.5
			c-10.4-5.8-17.4-16.8-17.4-29.5c0-0.1,0-137.7,0-137.8C128.2,145.2,149.6,120.7,177.8,115.9z"/>
	</g>
</g>
<g>
	<g>
		<circle cx="95.5" cy="50.9" r="38.9"/>
	</g>
</g>
<g>
	<g>
		<path d="M323.3,152.7L302.9,173v129.8c11.1,0.9,20.4-7.8,20.4-18.7L323.3,152.7z"/>
	</g>
</g>
<g>
	<g>
		<path d="M431.1,102.2c-6.9,0-63.1,0-70.8,0c-2.2,9.2-3.3,16.8-11,24.6l-17.8,17.8v317.1c0,12.4,10.1,22.5,22.5,22.5
			s22.5-10.1,22.5-22.5V281.9h9.7v179.8c0,12.4,10.1,22.5,22.5,22.5s22.5-10.1,22.5-22.5c0-293.7,0-132.6,0-315.2
			c0-2.2,1.4-3.9,3.5-3.9c2.2,0,3.9,1.7,4,3.9l0,0v137.7c0,10.4,8.4,18.7,18.8,18.7s18.7-8.4,18.7-18.7V146.3
			C476,122,455.8,102.2,431.1,102.2z"/>
	</g>
</g>
<g>
	<g>
		<path d="M378.8,12.2c0.9,4.7,0.9,9.6-0.3,14.5l-14.3,59.2c5.2,2.5,11,4,17.1,4c21.5,0,38.9-17.4,38.9-38.9
			C420.2,28.7,401.4,10.7,378.8,12.2z"/>
	</g>
</g>
<g>
	<g>
		<path d="M350.1,0.5c-10-2.4-20.2,3.8-22.6,13.8l-19,79l-37.1,37.1c-34.5-0.6-8.7-0.5-83.2-0.5c-24.7,0-44.9,19.8-45.1,44.2
			c0,2,0,135.6,0,137.7c0,10.2,8.3,18.7,18.7,18.7s18.8-8.4,18.8-18.8c0-146.8-0.1-137.9,0.2-139c1.2-4.6,8-3.8,8,1
			c0,27.5,0,130.7,0,135.7v179.8c0,12.4,10.1,22.5,22.5,22.5s22.5-10.1,22.5-22.5V309.7h9.7v179.8c0,12.4,10.1,22.5,22.5,22.5
			s22.5-10.1,22.5-22.5c0-174.1,0-323.7,0-323.7s-0.2,0.8,50.3-49.6c2.5-2.5,4.2-5.7,5-8.9c1.2-5.1,19-79.1,20.3-84.2
			C366.3,13.2,360.2,3,350.1,0.5z"/>
	</g>
</g>
<g>
	<g>
		<path d="M238.5,39.9c-21.5,0-38.9,17.4-38.9,38.9c0,21.4,17.4,38.9,38.9,38.9s38.9-17.4,38.9-38.9S260,39.9,238.5,39.9z"/>
	</g>
</g>
</svg>
