<?xml version="1.0" encoding="utf-8"?>
<!-- Generator: Adobe Illustrator 24.0.2, SVG Export Plug-In . SVG Version: 6.00 Build 0)  -->
<svg version="1.1" id="Layer_1" focusable="false" xmlns="http://www.w3.org/2000/svg" xmlns:xlink="http://www.w3.org/1999/xlink"
	 x="0px" y="0px" viewBox="0 0 496 496" style="enable-background:new 0 0 496 496;" xml:space="preserve">
<style type="text/css">
	.st0{fill:#FFFFFF;}
</style>
<path class="st0" d="M248,0C111,0,0,111,0,248s111,248,248,248s248-111,248-248S385,0,248,0z M392,276c0,6.6-5.4,12-12,12h-92v92
	c0,6.6-5.4,12-12,12h-56c-6.6,0-12-5.4-12-12v-92h-92c-6.6,0-12-5.4-12-12v-56c0-6.6,5.4-12,12-12h92v-92c0-6.6,5.4-12,12-12h56
	c6.6,0,12,5.4,12,12v92h92c6.6,0,12,5.4,12,12V276z"/>
</svg>
