<svg version="1.1" id="Layer_1" xmlns="http://www.w3.org/2000/svg" xmlns:xlink="http://www.w3.org/1999/xlink" x="0px" y="0px"
	 viewBox="0 0 638.4 599.3" style="enable-background:new 0 0 638.4 599.3;" xml:space="preserve">
<style type="text/css">
	.st0{fill:#FFFFFF;}
</style>
<path class="st0" d="M323.2,599.3c-1.7,0-7,0-8.1,0c-37.8,0-62.1-17.2-85.6-33.8c-16.2-11.5-31.5-22.3-49.5-25.3
	c-8.8-1.5-17.5-2.2-26-2.2c-15.3,0-27.3,2.4-36,4.1c-5.3,1-9.9,1.9-13.4,1.9c-3.7,0-7.6-0.8-9.3-6.7c-1.5-5.1-2.6-10-3.6-14.8
	c-2.7-12.3-4.6-19.8-9.7-20.6c-60-9.3-77.2-21.9-81-30.9c-0.5-1.3-0.9-2.6-0.9-3.8c-0.2-3.4,2.2-6.5,5.6-7
	C97.9,445,139.2,350.8,140.9,346.8c0-0.1,0.1-0.2,0.1-0.3c5.6-11.4,6.7-21.4,3.3-29.5c-6.3-14.9-27-21.5-40.6-25.8
	c-3.3-1.1-6.5-2.1-9-3.1c-27.3-10.8-29.5-21.8-28.5-27.5c1.8-9.6,14.7-16.3,25.1-16.3c2.8,0,5.3,0.5,7.5,1.5
	c12.3,5.7,23.3,8.7,32.9,8.7c13.2,0,18.9-5.5,19.6-6.3c-0.3-6.2-0.7-12.8-1.2-19.5c-2.7-43.6-6.2-97.8,7.6-128.7
	c41.3-92.7,129-99.9,154.9-99.9C313.3,0.1,324,0,324,0h1.5c25.9,0,113.8,7.2,155.2,100c13.8,30.9,10.4,85.2,7.6,128.7l-0.1,1.9
	c-0.4,6.1-0.8,12-1.1,17.6c0.7,0.7,6,5.8,17.9,6.2h0c9.1-0.3,19.5-3.2,31-8.6c3.3-1.6,7.1-1.9,9.6-1.9c3.9,0,7.8,0.7,11.1,2.1
	l0.2,0.1c9.3,3.3,15.3,9.8,15.5,16.6c0.1,6.4-4.8,16-28.7,25.4c-2.5,1-5.7,2-9,3.1c-13.7,4.3-34.3,10.9-40.6,25.8
	c-3.4,8.1-2.4,18.1,3.3,29.5c0,0.1,0.1,0.2,0.2,0.3c1.7,4,43,98.2,135.3,113.4c3.4,0.6,5.8,3.6,5.7,7c-0.1,1.3-0.4,2.6-0.9,3.9
	c-3.8,8.9-21,21.5-81,30.8c-4.9,0.8-6.8,7.1-9.7,20.5c-1.1,4.9-2.1,9.7-3.6,14.7c-1.3,4.4-4,6.4-8.6,6.4h-0.7
	c-3.2,0-7.7-0.6-13.4-1.7c-10.2-2-21.5-3.8-36-3.8c-8.5,0-17.2,0.7-26,2.2c-18,3-33.3,13.8-49.5,25.2
	C385.4,582.1,361.1,599.3,323.2,599.3"/>
</svg>
