<svg id="Layer_1" data-name="Layer 1" xmlns="http://www.w3.org/2000/svg" viewBox="0 0 384 384"><defs><style>.cls-1{fill:#ffe274;}</style></defs><title>subscribe</title><circle class="cls-1" cx="192" cy="192" r="192"/><path d="M323,96H91.85a12,12,0,0,0-12,12v4H60a12,12,0,0,0-12,12V259.43a27.9,27.9,0,0,0,27.9,27.9H311.08A23.91,23.91,0,0,0,335,263.42V108A12,12,0,0,0,323,96ZM75.9,263.42a4,4,0,0,1-4-4V135.86h8V259.43A4,4,0,0,1,75.9,263.42Zm117.59-8H117.76a6,6,0,0,1-6-6v-4a6,6,0,0,1,6-6h75.73a6,6,0,0,1,6,6v4A6,6,0,0,1,193.49,255.44Zm103.64,0H221.4a6,6,0,0,1-6-6v-4a6,6,0,0,1,6-6h75.73a6,6,0,0,1,6,6v4A6,6,0,0,1,297.13,255.44ZM193.49,207.61H117.76a6,6,0,0,1-6-6v-4a6,6,0,0,1,6-6h75.73a6,6,0,0,1,6,6v4A6,6,0,0,1,193.49,207.61Zm103.64,0H221.4a6,6,0,0,1-6-6v-4a6,6,0,0,1,6-6h75.73a6,6,0,0,1,6,6v4A6,6,0,0,1,297.13,207.61Zm0-47.83H117.76a6,6,0,0,1-6-6V133.87a6,6,0,0,1,6-6H297.13a6,6,0,0,1,6,6V153.8A6,6,0,0,1,297.13,159.78Z"/></svg>