<?xml version="1.0" encoding="utf-8"?>
<!-- Generator: Adobe Illustrator 23.1.0, SVG Export Plug-In . SVG Version: 6.00 Build 0)  -->
<svg version="1.1" id="Layer_1" xmlns="http://www.w3.org/2000/svg" xmlns:xlink="http://www.w3.org/1999/xlink" x="0px" y="0px"
	 viewBox="0 0 512 512" style="enable-background:new 0 0 512 512;" xml:space="preserve">
<style type="text/css">
	.st0{fill:#FFFFFF;}
</style>
<path class="st0" d="M464.7,112.5c-53.7,0-97.5-43.7-97.5-97.5c0-8.3-6.7-15-15-15h-80.3c-8.3,0-15,6.7-15,15v329.4
	c0,31.6-25.7,57.3-57.3,57.3s-57.3-25.7-57.3-57.3c0-31.6,25.7-57.3,57.3-57.3c8.3,0,15-6.7,15-15v-80.3c0-8.3-6.7-15-15-15
	C107.2,176.7,32,251.9,32,344.4S107.2,512,199.6,512s167.6-75.2,167.6-167.6V198.6c29.9,15.9,63.1,24.2,97.5,24.2
	c8.3,0,15-6.7,15-15v-80.3C479.7,119.2,473,112.5,464.7,112.5z"/>
</svg>
