<svg id="Layer_1" data-name="Layer 1" xmlns="http://www.w3.org/2000/svg" viewBox="0 0 384 384"><defs><style>.cls-1{fill:#ffe274;}</style></defs><title>volunteer</title><circle class="cls-1" cx="192" cy="192" r="192"/><path d="M157.38,111.67a26.07,26.07,0,0,0-18.7-7.88H81.05a25.83,25.83,0,0,0-25.93,25.42v79.2a10.81,10.81,0,0,0,21.62,0V129.27h0A2.28,2.28,0,0,1,79.1,127a2.37,2.37,0,0,1,2.36,2.36v77.81h0V310.55a12.94,12.94,0,1,0,25.88,0V207.14h5.58V310.55a12.94,12.94,0,1,0,25.88,0V241.42a19.38,19.38,0,0,1-10-17V145.2A34.34,34.34,0,0,1,157.38,111.67Z"/><circle cx="110.04" cy="74.28" r="22.37"/><path d="M241.06,132.83l-11.73,11.68v74.65a10.8,10.8,0,0,0,11.73-10.75Z"/><path d="M303.06,103.79H262.34c-1.26,5.29-1.9,9.66-6.33,14.15l-10.23,10.24V310.55a12.94,12.94,0,1,0,25.88,0V207.14h5.58V310.55a12.94,12.94,0,1,0,25.88,0V129.27a2.05,2.05,0,0,1,2-2.24,2.29,2.29,0,0,1,2.3,2.24h0v79.2a10.79,10.79,0,0,0,21.57,0V129.15A25.83,25.83,0,0,0,303.06,103.79Z"/><path d="M273,52a19.44,19.44,0,0,1-.17,8.34l-8.23,34a22.67,22.67,0,0,0,9.84,2.3A22.36,22.36,0,1,0,273,52Z"/><path d="M256.47,45.3a10.8,10.8,0,0,0-13,7.93L232.55,98.67,211.21,120c-19.84-.35-5-.29-47.85-.29a25.84,25.84,0,0,0-25.94,25.42v79.2a10.79,10.79,0,1,0,21.57-.06c0-84.43-.06-79.31.11-79.94a2.34,2.34,0,0,1,4.6.57V326.37a12.94,12.94,0,0,0,25.88,0V223.13h5.58V326.54a12.95,12.95,0,0,0,25.89,0V140.37s-.12.46,28.92-28.53a11.15,11.15,0,0,0,2.88-5.12c.69-2.93,10.93-45.49,11.68-48.42A11,11,0,0,0,256.47,45.3Z"/><path d="M192.29,68a22.37,22.37,0,1,0,22.37,22.37A22.37,22.37,0,0,0,192.29,68Z"/></svg>