<?xml version="1.0" encoding="utf-8"?>
<!-- Generator: Adobe Illustrator 24.1.1, SVG Export Plug-In . SVG Version: 6.00 Build 0)  -->
<svg version="1.1" id="Capa_1" xmlns="http://www.w3.org/2000/svg" xmlns:xlink="http://www.w3.org/1999/xlink" x="0px" y="0px"
	 viewBox="0 0 512 512" style="enable-background:new 0 0 512 512;" xml:space="preserve">
<style type="text/css">
	.st0{fill:#FFE274;}
</style>
<circle class="st0" cx="256.8" cy="256" r="256"/>
<path d="M160.8,176c13.2,0,24-10.7,24-24c0-13.2-10.7-24-24-24c-13.2,0-24,10.7-24,24C136.8,165.3,147.5,176,160.8,176z M352.8,176
	c13.2,0,24-10.7,24-24c0-13.2-10.7-24-24-24c-13.2,0-24,10.7-24,24C328.8,165.3,339.5,176,352.8,176z M415.6,362l-22-55l-20.5,23.2
	l-1,9.1l13.8,34.6c2.5,6.2,8.5,10,14.8,10c2,0,4-0.4,5.9-1.1C414.9,379.5,418.9,370.2,415.6,362L415.6,362z M398.5,257.1l-9.2-40.1
	c-2.3-10-9.3-18.4-18.7-22.4c-9.2-4-19.5-3.3-28,1.6c-11.3,6.7-19.8,17.2-24,29.7l-5.6,16.9l-8,5.1v-48c0-4.4-3.6-8-8-8h-80
	c-4.4,0-8,3.6-8,8v48l-8-5.1l-5.6-16.9c-4.1-12.5-12.7-23-24-29.7c-8.6-5-18.8-5.6-28-1.6c-9.4,4-16.4,12.4-18.7,22.4l-9.2,40.1
	c-2.3,10,0.3,20.6,7.2,28.3l33.6,37.9l5,46.3c0.9,8.1,7.8,14.2,15.9,14.2c0.6,0,1.1-0.1,1.7-0.1c8.8-0.9,15.1-8.8,14.1-17.6l-5-46.4
	c-0.7-6.5-3.4-12.5-7.8-17.5l-21.6-24.5l8.8-35.1l3.4,10.2c2,6.2,5.9,11.7,12.2,16.3l25.5,16.2c2.3,1.4,6,2.3,8.6,2.5h80
	c2.5-0.2,6.3-1,8.6-2.5l25.5-16.2c6.3-4.6,10.2-10,12.2-16.3l3.4-10.2l8.8,35.1l-21.6,24.5c-4.3,4.9-7,11-7.8,17.5l-5,46.4
	c-0.9,8.8,5.4,16.7,14.1,17.6c0.6,0,1.1,0.1,1.7,0.1c8,0,15-6,15.9-14.2l5-46.3l33.6-37.9C398.1,277.7,400.8,267.1,398.5,257.1z
	 M119.9,307l-22,55c-3.3,8.2,0.7,17.5,8.9,20.8c8.4,3.3,17.5-0.9,20.8-8.9l13.8-34.6l-1-9.1C140.5,330.2,119.9,307,119.9,307z"/>
</svg>
