<svg version="1.1" id="regular" xmlns="http://www.w3.org/2000/svg" xmlns:xlink="http://www.w3.org/1999/xlink" x="0px" y="0px"
	 viewBox="0 0 512 394.6" style="enable-background:new 0 0 512 394.6;" xml:space="preserve">
<style type="text/css">
	.st0{fill:#FFFFFF;}
</style>
<path class="st0" d="M212,108.9c-10.6-6.3-24.2,1.3-24.2,13.7v149.3c0,12.5,13.6,20,24.2,13.8l125.2-74.6c10.4-6.2,10.4-21.3,0-27.5
	L212,108.9z M219.8,243.8v-93l78,46.6L219.8,243.8z"/>
<path class="st0" d="M424.6,11.1c-99.3-14.7-237.9-14.7-337.2,0c-39.7,5.9-71,37.1-77.8,77.6c-12.7,75.2-12.7,142.2,0,217.3
	c6.8,40.5,38.1,71.7,77.8,77.6c49.7,7.4,109.3,11.1,168.9,11.1c59.4,0,118.8-3.7,168.4-11.1c39.7-5.9,71-37.1,77.8-77.6
	c12.7-75.2,12.7-142.2,0-217.3C495.6,48.1,464.3,16.9,424.6,11.1L424.6,11.1z M470.9,300.6c-4.5,26.8-25,47.4-51,51.2
	c-96.4,14.3-231.2,14.3-327.9,0c-26-3.9-46.5-24.4-51-51.2c-12.2-72.4-12.2-134.2,0-206.7c4.5-26.8,25-47.4,51-51.2
	C140.4,35.5,198.2,32,256,32c57.8,0,115.7,3.6,163.9,10.7c26,3.9,46.5,24.4,51,51.2C483.2,166.4,483.2,228.2,470.9,300.6
	L470.9,300.6z"/>
<polygon class="st0" points="206,135.3 206,267.3 331,197.3 "/>
</svg>
