<?xml version="1.0" standalone="no"?>
<!DOCTYPE svg PUBLIC "-//W3C//DTD SVG 20010904//EN"
 "http://www.w3.org/TR/2001/REC-SVG-20010904/DTD/svg10.dtd">
<svg version="1.0" xmlns="http://www.w3.org/2000/svg"
 width="972.000000pt" height="972.000000pt" viewBox="0 0 972.000000 972.000000"
 preserveAspectRatio="xMidYMid meet">
<metadata>
Created by potrace 1.11, written by Peter Selinger 2001-2013
</metadata>
<g transform="translate(0.000000,972.000000) scale(0.100000,-0.100000)"
fill="#000000" stroke="none">
<path d="M4923 9286 c4 -350 3 -405 -10 -410 -25 -10 -161 -7 -168 4 -3 6 -1
10 5 10 21 0 89 80 101 118 17 54 24 431 9 515 -21 121 -75 156 -214 138 -107
-13 -160 -53 -201 -151 -16 -38 -19 -80 -23 -282 -4 -229 -3 -239 18 -281 14
-27 37 -54 61 -68 21 -13 39 -27 39 -31 0 -4 -21 -10 -47 -13 -27 -4 -54 -8
-60 -10 -10 -4 -13 -108 -13 -477 0 -260 3 -484 7 -497 6 -23 7 -23 92 -16 47
3 96 9 109 12 l22 5 0 504 0 504 24 0 c29 0 33 -13 41 -135 3 -49 12 -133 20
-185 14 -96 24 -165 50 -365 38 -285 48 -321 88 -329 54 -11 229 -15 247 -6
12 7 20 26 25 62 4 29 11 69 16 89 5 19 16 73 25 120 8 46 22 116 29 154 8 39
21 107 29 153 8 45 17 86 20 90 2 4 9 43 15 86 6 44 15 84 20 90 4 6 11 31 15
55 10 67 -7 85 -96 101 -124 22 -113 6 -109 171 2 89 7 147 14 151 6 3 41 4
78 1 90 -8 114 0 149 49 29 40 30 45 30 149 0 117 -16 187 -53 226 -28 31 -92
61 -157 73 -30 6 -56 15 -58 20 -2 6 -45 10 -98 10 l-95 0 4 -404z m-245 189
c10 -29 12 -94 10 -237 -3 -189 -4 -198 -25 -220 l-23 -22 -22 21 c-20 21 -22
33 -26 236 -4 198 -3 217 14 241 27 38 56 30 72 -19z m517 -11 c36 -56 -1
-161 -52 -148 -30 8 -34 25 -27 105 7 67 8 69 34 69 19 0 33 -8 45 -26z m-114
-603 c4 -3 -1 -49 -11 -101 -11 -52 -23 -140 -29 -195 -15 -149 -31 -249 -42
-259 -6 -6 -9 -3 -10 10 0 10 -4 71 -10 134 -15 178 -27 414 -22 423 5 8 114
-2 124 -12z"/>
<path d="M4264 9538 c-61 -31 -68 -48 -72 -181 -4 -112 -5 -119 -29 -134 -36
-24 -43 -6 -43 115 0 56 -3 102 -7 102 -15 0 -83 -53 -98 -77 -11 -17 -20 -63
-26 -146 -5 -67 -13 -169 -18 -227 -6 -58 -10 -144 -11 -193 0 -83 1 -88 24
-98 24 -11 24 -12 -22 -44 -42 -28 -48 -38 -55 -81 -5 -27 -9 -128 -10 -224
-2 -148 -4 -175 -17 -175 -20 0 -30 73 -20 139 4 27 5 57 3 67 -8 29 -30 22
-36 -11 -5 -23 -12 -30 -30 -30 -38 0 -272 -188 -296 -238 -17 -36 -14 -119 5
-126 19 -7 22 -5 94 49 30 23 76 54 101 69 41 23 48 25 59 11 8 -9 9 -19 4
-24 -29 -24 -93 -71 -98 -71 -6 0 -73 -45 -138 -93 -17 -13 -30 -34 -34 -56
-13 -66 -21 -2 -21 160 -1 88 -5 164 -11 175 -9 16 -13 12 -30 -27 -51 -111
-86 -209 -98 -274 -3 -22 -11 -48 -16 -58 -24 -46 -30 -291 -8 -326 9 -15 48
-1 108 40 58 39 75 35 84 -20 11 -62 33 -94 61 -85 32 9 43 21 62 60 9 19 26
39 38 44 12 6 29 14 37 20 81 53 143 81 169 75 41 -9 78 10 98 49 18 34 82 86
106 86 7 0 17 -4 22 -9 12 -11 259 39 276 56 15 15 3 133 -16 159 -12 17 -18
17 -59 6 -81 -21 -155 -26 -161 -11 -2 8 -8 171 -12 364 l-8 349 -23 12 c-20
10 -21 13 -7 24 12 10 15 39 15 149 0 115 3 140 18 159 13 16 26 23 43 20 24
-3 24 -5 26 -113 4 -156 4 -157 56 -149 23 4 57 13 75 20 l32 13 -2 363 c-3
355 -3 363 -23 365 -11 1 -38 -7 -61 -19z m-295 -1548 c28 -54 27 -67 -9 -75
-16 -4 -32 -11 -35 -15 -5 -7 -44 3 -64 17 -2 1 11 17 29 34 17 18 36 43 41
56 5 12 10 23 13 23 2 0 13 -18 25 -40z m-179 -138 c0 -23 -10 -34 -69 -70
-37 -23 -71 -42 -76 -42 -4 0 -27 -14 -52 -30 -28 -19 -52 -28 -64 -25 -22 7
-35 61 -24 102 l7 28 13 -32 c8 -18 19 -33 25 -33 6 0 41 19 78 43 157 101
162 103 162 59z"/>
<path d="M5445 9551 c-11 -19 -6 -743 6 -757 9 -11 6 -14 -14 -14 -14 0 -36 4
-50 9 -49 19 -43 68 -67 -636 -7 -189 -10 -349 -7 -355 8 -22 262 -93 308 -86
16 2 31 19 50 58 38 75 37 97 -3 109 -71 21 -110 39 -119 52 -10 16 -12 102
-3 148 6 26 11 31 36 31 16 0 48 -9 71 -19 23 -11 58 -22 79 -26 30 -6 37 -4
42 12 11 36 9 152 -3 166 -6 8 -50 30 -96 48 -47 18 -91 40 -98 48 -9 12 -12
37 -8 91 l6 75 34 -3 c19 -1 39 -6 45 -11 6 -5 39 -21 74 -35 84 -35 102 -27
102 48 0 63 -16 113 -40 126 -14 8 -16 20 -12 82 5 85 8 81 -93 133 -38 19
-72 40 -77 47 -11 19 -10 112 3 125 7 7 26 2 64 -19 52 -28 54 -28 64 -9 6 11
11 43 11 71 0 49 -1 51 -47 80 -93 57 -93 57 -93 110 0 27 5 52 10 55 6 4 38
-12 71 -34 34 -23 65 -38 70 -35 5 3 9 31 9 63 0 43 -5 62 -19 78 -57 61 -246
183 -284 183 -9 0 -18 -4 -22 -9z"/>
<path d="M5877 9213 c-4 -3 -7 -37 -7 -74 0 -50 -4 -68 -15 -73 -8 -3 -15 -15
-15 -26 0 -22 38 -100 55 -112 5 -4 6 -11 1 -15 -5 -4 -11 -2 -13 5 -3 6 -13
12 -24 12 -14 0 -19 -7 -19 -30 0 -42 101 -150 124 -131 14 12 11 46 -7 69 -7
9 -4 18 8 32 16 17 16 29 7 119 -8 79 -17 115 -43 166 -31 63 -39 72 -52 58z"/>
<path d="M3891 9145 c-13 -27 -33 -60 -44 -73 -18 -19 -19 -26 -9 -40 26 -36
25 -45 -7 -71 -25 -21 -31 -33 -30 -61 1 -19 -3 -68 -10 -107 -11 -64 -11 -75
3 -89 12 -12 14 -20 5 -35 -8 -15 -7 -24 2 -35 9 -11 9 -18 1 -26 -15 -15 -16
-48 -1 -48 24 0 50 23 69 60 27 53 25 66 -10 79 -16 5 -30 12 -30 15 0 3 13
19 29 37 26 28 30 39 29 91 -1 51 -4 61 -22 68 -18 7 -19 9 -4 15 21 9 48 75
48 121 0 19 4 43 8 52 4 9 5 35 2 57 l-6 40 -23 -50z"/>
<path d="M6061 8771 c-10 -6 -16 -35 -19 -88 l-4 -79 48 -39 c27 -22 55 -44
62 -50 7 -5 19 -16 27 -23 13 -11 15 -10 15 10 0 25 -26 106 -40 123 -4 5 -11
26 -15 45 -9 40 -42 110 -53 110 -4 0 -13 -4 -21 -9z"/>
<path d="M5928 8733 c-35 -9 -33 -138 2 -138 22 0 40 45 38 94 -3 45 -9 52
-40 44z"/>
<path d="M3692 8693 c-45 -64 -86 -168 -92 -232 -4 -58 -8 -66 -34 -80 -18
-11 -35 -33 -47 -64 -38 -97 12 -136 66 -51 21 33 34 44 47 41 21 -6 87 39
112 77 37 57 38 275 1 316 -24 26 -30 25 -53 -7z m0 -168 c0 -5 -5 -11 -11
-13 -6 -2 -11 4 -11 13 0 9 5 15 11 13 6 -2 11 -8 11 -13z"/>
<path d="M5916 8557 c-5 -15 -5 -44 0 -65 l8 -37 4 33 c2 17 2 47 0 65 l-4 32
-8 -28z"/>
<path d="M3821 8470 c-19 -16 -20 -21 -8 -26 27 -10 52 0 55 24 4 27 -15 28
-47 2z"/>
<path d="M6006 8437 c-65 -70 -86 -209 -43 -279 25 -41 52 -65 117 -99 25 -14
65 -37 89 -53 62 -40 112 -45 140 -15 19 20 22 33 18 74 -7 84 -29 177 -49
212 -22 36 -33 41 -42 17 -13 -34 -5 -77 20 -107 22 -26 23 -32 11 -44 -31
-32 -96 38 -72 77 4 6 7 46 6 88 l0 77 -46 43 c-60 55 -103 58 -149 9z m94
-142 c16 -19 9 -49 -12 -53 -19 -4 -53 42 -43 58 9 15 41 12 55 -5z"/>
<path d="M6373 8070 c-6 -14 -13 -70 -17 -126 -3 -56 -9 -115 -12 -131 -5 -23
-1 -35 12 -46 11 -9 51 -46 90 -82 42 -38 79 -65 92 -65 22 0 29 18 13 36 -4
5 -20 45 -34 89 -24 74 -45 132 -67 180 -24 53 -45 103 -55 135 l-12 35 -10
-25z"/>
<path d="M5965 7884 c-14 -31 -25 -58 -25 -61 0 -2 -8 -23 -18 -46 -10 -23
-27 -62 -37 -87 -28 -66 -32 -68 -54 -16 -36 83 -89 78 -163 -18 -42 -55 -72
-107 -193 -341 -40 -77 -91 -171 -115 -209 -23 -38 -46 -79 -51 -90 -5 -12
-19 -37 -31 -56 -54 -88 -128 -245 -138 -292 -18 -82 -3 -109 60 -110 3 -1 20
2 38 6 27 5 35 2 39 -12 7 -26 50 -53 93 -59 37 -5 38 -5 74 56 20 34 36 64
36 66 0 2 19 36 43 77 53 89 96 168 172 313 32 60 62 116 66 125 23 40 141
296 178 385 23 55 46 109 51 120 23 51 79 203 85 233 9 42 -15 72 -57 72 -25
0 -31 -7 -53 -56z m-225 -464 c0 -38 -180 -393 -289 -570 -33 -53 -53 -76 -70
-78 -20 -3 -22 -1 -16 20 11 33 22 58 49 103 12 22 42 76 66 120 24 44 54 97
67 117 12 21 23 40 23 43 0 12 99 203 131 253 20 31 39 28 39 -8z"/>
<path d="M6125 7818 c-14 -29 -25 -59 -25 -66 0 -7 -7 -26 -16 -43 -20 -39
-11 -62 32 -85 35 -19 36 -19 50 1 20 27 47 122 48 169 1 34 -3 41 -32 57
l-33 19 -24 -52z"/>
<path d="M3930 7592 c-47 -14 -132 -56 -190 -92 -8 -5 -37 -21 -65 -35 -27
-14 -57 -30 -65 -35 -8 -5 -49 -28 -90 -51 -160 -91 -231 -164 -263 -271 -17
-53 -17 -61 -2 -115 24 -87 46 -123 87 -144 61 -31 127 -21 233 37 22 13 64
35 93 50 39 21 52 33 52 50 0 31 -33 105 -57 127 -19 16 -22 16 -69 -9 -113
-62 -149 -73 -158 -48 -11 28 12 50 111 108 54 31 105 61 113 66 8 5 40 21 70
37 30 15 89 48 130 72 78 45 142 62 155 42 11 -19 -24 -51 -91 -82 -33 -16
-68 -37 -77 -47 -15 -16 -14 -21 12 -62 16 -25 31 -55 35 -67 11 -35 37 -35
106 0 92 47 140 79 181 123 84 90 99 157 54 242 -37 70 -48 81 -104 103 -61
23 -127 23 -201 1z"/>
<path d="M6027 7542 c-9 -10 -17 -22 -17 -26 0 -8 -5 -19 -55 -131 -91 -201
-220 -460 -317 -635 -24 -42 -81 -148 -135 -249 -12 -24 -23 -50 -23 -56 0
-17 43 -44 79 -51 33 -7 42 5 113 136 19 36 49 88 65 115 29 50 173 340 173
349 0 3 20 47 44 98 90 192 166 382 166 416 0 41 -65 65 -93 34z"/>
<path d="M3145 7464 c-26 -28 -65 -106 -65 -130 0 -7 9 -18 21 -24 16 -9 25
-8 40 6 39 36 60 82 57 125 -4 52 -20 59 -53 23z"/>
<path d="M6171 7469 c-7 -21 -54 -156 -92 -269 -36 -108 -151 -399 -195 -497
-8 -17 -14 -34 -14 -37 0 -5 -29 -72 -75 -171 -83 -181 -83 -177 -12 -210 64
-30 69 -31 93 -2 17 19 108 168 187 307 76 132 197 394 258 555 12 33 28 74
35 92 8 17 14 38 14 46 0 8 7 30 15 49 13 33 13 37 -9 57 -27 26 -65 28 -72 4
-3 -10 -12 -31 -20 -46 -7 -16 -14 -36 -14 -45 0 -9 -7 -30 -15 -45 -8 -15
-17 -44 -21 -63 -4 -20 -13 -38 -20 -41 -8 -3 -14 -16 -14 -28 0 -32 -10 -56
-21 -49 -14 8 -11 48 6 70 8 10 15 27 15 37 0 11 7 33 15 50 8 18 19 50 24 72
6 22 16 62 22 88 11 43 11 50 -7 67 -10 10 -31 22 -46 25 -23 6 -29 3 -37 -16z
m-11 -441 c-1 -26 -3 -30 -10 -16 -6 9 -7 23 -4 32 9 25 14 19 14 -16z"/>
<path d="M6446 7296 c-30 -33 -69 -115 -96 -201 -12 -38 -29 -84 -36 -102 -8
-17 -14 -37 -14 -45 0 -7 -7 -22 -15 -32 -8 -11 -15 -26 -15 -34 0 -8 -6 -28
-14 -45 -8 -18 -33 -77 -56 -132 -40 -96 -91 -211 -110 -247 -31 -57 -50 -138
-50 -215 0 -90 10 -108 71 -134 40 -16 103 8 151 59 37 38 108 164 108 192 0
9 6 25 14 36 8 11 17 41 21 66 7 45 6 47 -24 63 -53 27 -66 11 -112 -130 -5
-16 -20 -38 -34 -47 -23 -17 -24 -17 -30 2 -4 11 1 34 9 52 9 17 16 35 16 39
0 5 19 56 41 114 39 99 43 105 70 105 16 0 46 -9 66 -20 38 -20 63 -14 63 17
0 7 7 16 15 19 9 4 15 19 15 39 0 41 9 67 21 59 15 -9 10 -71 -6 -88 -8 -8
-15 -30 -15 -48 0 -18 -6 -45 -14 -60 -8 -15 -17 -41 -21 -58 -4 -17 -13 -43
-21 -58 -8 -15 -14 -34 -14 -43 0 -8 -7 -24 -15 -35 -8 -10 -15 -28 -15 -39 0
-11 -7 -33 -15 -49 -8 -15 -15 -33 -15 -40 -1 -6 -9 -29 -20 -51 -11 -22 -19
-45 -20 -51 0 -6 -7 -25 -16 -42 -20 -42 -10 -69 33 -87 19 -8 38 -15 42 -15
9 0 34 52 61 125 13 33 26 69 31 80 28 67 82 246 128 425 7 25 16 60 21 78 9
37 36 72 55 72 14 0 26 -455 16 -577 -6 -76 -14 -94 -33 -75 -9 9 -9 27 0 74
10 54 9 64 -5 80 -38 42 -67 3 -103 -142 -31 -120 -34 -165 -14 -206 49 -101
137 -65 190 78 24 67 45 139 54 188 12 62 11 304 -1 365 -16 79 -23 275 -10
275 7 0 11 -22 11 -57 0 -62 11 -90 29 -79 30 19 -11 280 -51 321 -19 20 -19
20 -34 1 -8 -11 -14 -29 -15 -40 -1 -12 -7 -2 -15 23 -7 24 -18 48 -23 55 -5
6 -12 35 -16 64 -6 47 -10 53 -28 50 -33 -5 -47 -45 -48 -138 -1 -70 -3 -79
-10 -50 -5 19 -6 54 -3 77 8 56 -14 182 -38 216 -24 34 -61 35 -92 3z m22
-274 c3 -46 -34 -145 -52 -139 -20 7 -19 40 5 114 25 80 42 89 47 25z m92
-171 c0 -17 -4 -33 -10 -36 -6 -4 -10 8 -10 29 0 20 5 36 10 36 6 0 10 -13 10
-29z"/>
<path d="M4215 7150 c-58 -12 -115 -35 -187 -74 -35 -20 -108 -58 -163 -86
-55 -28 -118 -61 -140 -73 -22 -12 -65 -33 -95 -47 -30 -14 -57 -27 -60 -30
-3 -3 -24 -18 -48 -34 -82 -56 -122 -131 -122 -229 0 -60 4 -78 25 -109 32
-47 97 -78 163 -78 50 0 163 32 191 53 20 17 41 28 271 142 289 145 340 176
410 253 60 65 60 65 60 127 0 53 -4 68 -29 102 -47 65 -79 83 -163 87 -40 3
-91 1 -113 -4z m49 -203 c17 -13 16 -15 -12 -43 -26 -25 -122 -77 -504 -271
-83 -42 -131 -53 -143 -32 -14 21 39 59 188 135 84 42 217 110 297 150 79 41
147 74 150 74 3 0 14 -6 24 -13z"/>
<path d="M3034 7098 c-78 -82 -162 -216 -164 -258 0 -8 -14 -39 -30 -69 -19
-33 -30 -69 -30 -92 0 -24 -11 -56 -30 -88 -54 -93 -73 -149 -74 -219 -1 -69
15 -94 34 -50 5 13 30 50 54 83 25 33 45 65 45 71 1 6 12 21 26 34 19 18 41
24 106 30 78 7 104 19 95 45 -2 6 -9 42 -16 80 -7 39 -14 76 -16 83 -2 8 -23
12 -57 12 -30 0 -56 3 -60 6 -3 3 24 32 60 63 37 31 84 72 105 92 38 36 38 37
32 100 -8 94 -14 129 -23 129 -4 0 -30 -24 -57 -52z"/>
<path d="M3084 6815 c-17 -41 -19 -146 -3 -162 6 -6 17 -22 23 -35 8 -17 21
-24 49 -26 20 -2 37 -6 37 -9 0 -3 -11 -16 -25 -29 -22 -20 -25 -32 -25 -89 0
-93 34 -159 91 -176 31 -10 37 -15 25 -21 -12 -7 -16 -25 -16 -71 0 -156 115
-285 165 -186 8 15 15 35 15 44 0 23 28 30 48 12 12 -10 24 -12 40 -6 19 7 22
16 22 57 0 83 -48 168 -108 192 -29 11 -35 10 -53 -6 -11 -10 -27 -34 -36 -54
l-14 -35 -15 34 c-13 30 -13 36 2 52 9 10 26 21 36 25 33 10 68 46 68 70 0 67
-35 91 -90 59 -38 -21 -91 -45 -102 -45 -5 0 -8 10 -6 22 2 16 19 31 57 49 29
15 62 36 73 47 19 19 19 20 1 58 -22 47 -53 55 -95 24 -16 -12 -36 -19 -44
-16 -22 9 -11 20 46 47 51 24 51 24 48 68 -4 64 -25 73 -88 39 -28 -16 -54
-28 -59 -28 -5 0 -10 25 -10 55 0 30 -2 59 -6 65 -13 21 -36 9 -51 -25z m249
-658 c3 -8 1 -20 -4 -28 -8 -12 -10 -12 -18 0 -10 15 -4 41 9 41 4 0 10 -6 13
-13z"/>
<path d="M4590 6793 c-8 -3 -51 -27 -95 -52 -44 -25 -102 -57 -130 -70 -27
-12 -70 -33 -95 -46 -25 -13 -171 -87 -325 -165 -154 -77 -289 -149 -300 -158
-38 -31 -75 -89 -75 -115 0 -38 29 -81 69 -103 30 -16 35 -24 33 -49 -5 -44
53 -145 84 -145 10 0 655 322 829 414 39 21 110 59 159 85 109 58 117 68 91
118 -34 63 -54 83 -85 83 -16 0 -31 -4 -34 -9 -3 -5 -48 -30 -99 -56 -50 -26
-112 -58 -137 -72 -66 -36 -427 -218 -482 -242 -51 -23 -93 -27 -103 -10 -11
18 36 58 105 91 131 61 345 171 364 187 6 5 77 42 156 82 161 80 200 104 200
123 0 21 -82 116 -99 115 -9 0 -23 -3 -31 -6z"/>
<path d="M6897 6697 c-3 -8 -13 -91 -22 -184 -8 -92 -22 -199 -30 -238 -9 -38
-15 -81 -15 -94 0 -14 -6 -50 -14 -80 -8 -31 -25 -100 -37 -155 l-23 -98 29
-25 c27 -24 29 -24 42 -7 8 10 18 34 22 54 20 79 42 189 52 255 5 39 15 102
21 140 12 80 5 404 -10 430 -8 15 -10 15 -15 2z"/>
<path d="M6966 6529 c-3 -13 -7 -105 -9 -204 -4 -170 -9 -206 -43 -365 -26
-119 -15 -240 22 -254 16 -6 19 -3 40 60 14 42 17 101 18 406 1 265 -2 360
-11 369 -9 9 -13 7 -17 -12z"/>
<path d="M2940 6412 c-64 -42 -148 -103 -187 -135 -82 -65 -90 -84 -76 -183 7
-53 10 -59 33 -62 17 -2 41 9 71 31 150 115 250 157 241 102 -5 -30 -36 -59
-98 -91 -111 -58 -200 -118 -213 -142 -12 -22 -4 -146 11 -174 5 -10 16 -18
25 -18 18 0 78 29 128 61 17 10 37 22 45 26 8 4 52 28 97 54 45 26 90 50 102
54 11 3 34 22 50 41 28 32 31 41 31 106 0 74 -14 109 -67 166 -15 16 -22 34
-19 46 7 27 -12 113 -35 159 -11 20 -20 37 -22 37 -1 -1 -54 -35 -117 -78z"/>
<path d="M4979 6449 c-10 -10 -19 -24 -19 -31 0 -27 27 -83 53 -111 46 -50 38
-62 -46 -63 -39 0 -53 1 -29 3 41 4 42 5 42 43 0 24 -5 40 -15 44 -8 3 -15 10
-15 15 0 6 -12 22 -26 36 -24 24 -29 25 -62 14 -21 -6 -42 -16 -49 -21 -7 -5
-27 -18 -45 -27 -52 -28 -246 -131 -323 -172 -209 -112 -323 -170 -420 -214
-44 -20 -87 -40 -95 -45 -8 -5 -35 -18 -60 -30 -91 -40 -94 -48 -55 -126 32
-64 62 -77 109 -49 17 9 139 73 271 140 132 67 261 133 286 147 44 24 121 48
153 48 8 0 28 -11 44 -25 29 -24 72 -34 72 -16 0 5 12 14 28 20 15 6 34 15 42
20 8 6 63 38 123 72 59 34 110 65 113 70 3 5 13 9 23 9 23 0 101 112 108 154
5 29 1 33 -59 65 -88 47 -125 54 -149 30z"/>
<path d="M7071 6245 c-11 -313 -34 -519 -61 -535 -6 -3 -15 -32 -20 -62 -12
-79 -44 -122 -65 -88 -10 17 -54 11 -64 -8 -6 -11 -19 -52 -31 -93 -19 -67
-43 -150 -56 -189 -3 -10 11 -23 43 -40 66 -34 103 -69 103 -98 0 -33 -29 -79
-54 -86 -23 -6 -181 57 -210 84 -18 17 -17 20 17 111 20 52 41 110 48 129 6
19 18 51 25 70 26 72 46 148 42 166 -2 12 -44 39 -123 79 -116 58 -122 60
-200 60 -99 0 -152 -24 -235 -105 -50 -49 -160 -214 -160 -241 0 -5 -6 -20
-14 -32 -17 -27 -36 -114 -36 -167 0 -110 45 -177 166 -246 65 -37 92 -50 204
-96 25 -10 57 -25 72 -33 14 -8 31 -15 37 -15 6 0 39 -13 73 -29 165 -78 220
-87 295 -49 113 57 165 155 208 398 17 98 16 125 -12 248 -16 70 -16 73 5 125
41 100 60 262 61 500 1 123 -1 141 -19 165 -11 15 -24 47 -29 72 l-9 45 -1
-40z m-621 -859 c54 -29 60 -50 27 -108 -21 -37 -29 -43 -55 -42 -42 2 -120
41 -138 69 -14 21 -14 27 0 54 9 16 24 35 33 40 30 18 86 12 133 -13z"/>
<path d="M5401 6231 c-11 -9 -36 -47 -56 -86 -61 -114 -71 -125 -108 -118 -18
3 -39 12 -47 19 -9 7 -40 19 -69 26 -59 13 -169 0 -221 -27 -16 -8 -38 -15
-48 -15 -11 0 -25 -7 -32 -15 -7 -8 -21 -15 -31 -15 -10 0 -30 -11 -45 -25
l-28 -26 41 -57 c23 -33 49 -58 61 -60 12 -2 45 13 74 32 53 36 81 43 107 27
25 -16 -11 -55 -83 -90 -57 -29 -72 -32 -123 -28 -32 3 -94 15 -138 27 -72 19
-88 21 -160 10 -78 -10 -110 -20 -205 -62 -182 -81 -330 -192 -330 -249 0 -36
38 -87 75 -99 29 -10 36 -18 49 -63 17 -57 57 -107 85 -107 17 0 296 138 411
203 25 14 74 41 110 59 95 50 161 87 195 109 17 10 39 23 50 28 41 18 137 80
195 124 63 49 107 108 117 157 3 17 9 30 14 30 19 0 139 -167 139 -193 0 -3
-37 -6 -82 -9 -86 -5 -153 -30 -267 -103 -23 -14 -52 -30 -64 -36 -12 -5 -40
-20 -62 -33 -22 -12 -76 -42 -120 -66 -44 -23 -85 -46 -90 -51 -6 -4 -59 -33
-119 -63 -185 -95 -241 -150 -234 -230 3 -35 8 -42 43 -61 73 -38 73 -36 -1
-71 -38 -18 -77 -33 -87 -33 -24 -1 -32 25 -17 53 10 20 9 29 -9 62 -32 60
-46 74 -75 74 -54 0 -146 -115 -146 -185 0 -82 108 -185 193 -185 35 0 156 35
207 59 79 39 328 174 383 208 21 13 48 28 60 34 12 5 31 15 42 22 11 7 56 32
100 57 44 25 89 50 100 57 11 6 34 18 50 27 17 8 104 59 195 113 116 69 166
104 168 118 4 26 -60 101 -93 109 -29 7 -35 43 -9 53 14 5 118 -41 254 -111
62 -33 97 -27 123 21 7 12 32 55 56 95 52 85 161 297 161 314 0 19 -32 40
-103 68 -79 31 -94 27 -127 -36 -66 -128 -101 -178 -123 -177 -12 0 -60 19
-107 42 -64 31 -86 48 -88 64 -2 13 17 52 48 100 28 43 49 87 48 97 -3 20 -79
66 -149 90 -35 12 -42 12 -58 -3z m-835 -601 c33 0 9 -20 -73 -60 -49 -24
-105 -54 -126 -67 -85 -53 -182 -44 -117 11 18 14 37 26 44 26 7 0 33 11 57
25 101 56 157 77 187 69 8 -2 20 -4 28 -4z m653 -134 c15 -18 -41 -74 -113
-111 -28 -15 -69 -37 -91 -49 -233 -131 -306 -167 -333 -164 -59 7 -19 48 116
120 34 18 70 38 80 43 9 6 53 30 97 55 44 25 89 50 100 57 11 7 27 15 35 19 8
4 22 13 30 19 13 11 32 18 61 24 4 0 12 -5 18 -13z"/>
<path d="M3534 6038 c-5 -7 -7 -25 -6 -39 2 -27 -36 -69 -62 -69 -22 0 -96
-45 -97 -60 -3 -36 4 -57 27 -80 l24 -25 38 19 c20 10 54 27 75 38 44 23 75
18 99 -16 l18 -24 -95 -47 c-88 -44 -95 -50 -95 -77 0 -16 5 -39 11 -50 9 -17
17 -19 51 -14 62 10 173 61 215 99 21 19 22 20 4 53 -10 19 -30 44 -45 55 -14
11 -26 30 -26 42 0 12 -14 47 -30 77 -16 30 -34 66 -40 79 -10 24 -38 50 -52
51 -4 0 -10 -5 -14 -12z"/>
<path d="M3124 5841 c-23 -9 -47 -21 -55 -27 -8 -6 -58 -33 -111 -59 -54 -27
-109 -60 -123 -75 -14 -15 -32 -53 -42 -92 -16 -64 -16 -70 2 -160 31 -153 92
-228 186 -228 24 0 58 7 74 16 118 63 248 124 266 124 22 0 87 60 104 96 19
41 19 198 0 224 -7 8 -24 36 -38 61 -15 26 -50 67 -78 93 -46 41 -56 46 -98
45 -25 -1 -64 -8 -87 -18z m130 -207 c9 -3 16 -15 16 -27 0 -22 -36 -67 -54
-67 -5 0 -69 -30 -142 -67 -136 -68 -164 -74 -164 -30 0 33 18 47 145 112 61
32 115 61 120 65 9 7 32 15 57 19 3 0 13 -2 22 -5z"/>
<path d="M3680 5611 c-136 -49 -158 -98 -98 -218 27 -55 65 -83 111 -83 45 0
61 31 39 78 -14 28 -21 32 -53 32 -32 0 -49 12 -49 35 0 2 26 15 58 30 31 14
64 30 73 35 9 5 20 6 23 3 9 -10 7 -48 -4 -59 -14 -14 19 -81 44 -88 31 -8 66
30 66 71 0 75 -88 185 -145 182 -11 -1 -40 -9 -65 -18z"/>
<path d="M3880 5340 c-107 -54 -141 -70 -155 -70 -20 0 -38 -37 -31 -65 3 -12
23 -52 43 -89 39 -69 70 -89 98 -66 16 13 6 52 -22 82 -8 10 -13 24 -10 33 10
25 45 18 62 -14 16 -33 51 -49 68 -32 8 8 8 23 -1 57 -21 79 2 87 47 14 30
-49 50 -60 80 -41 9 6 11 18 7 34 -10 40 -108 188 -124 186 -4 0 -32 -13 -62
-29z"/>
<path d="M3501 5342 c-19 -7 -439 -330 -491 -378 -22 -20 -40 -42 -40 -49 0
-6 17 -45 38 -86 43 -83 64 -93 131 -66 83 34 229 72 238 63 3 -3 -3 -6 -15
-6 -13 0 -22 -6 -22 -15 0 -9 -10 -20 -22 -24 -23 -9 -100 -57 -170 -105 -21
-14 -38 -34 -38 -43 0 -22 63 -149 86 -174 13 -15 26 -18 58 -13 49 6 163 31
226 50 25 7 72 18 105 24 211 40 368 88 373 113 4 22 -63 134 -93 153 -16 10
-29 12 -46 6 -13 -6 -58 -20 -99 -32 -41 -12 -83 -26 -93 -31 -9 -5 -38 -12
-62 -16 -38 -5 -45 -3 -45 11 0 9 5 16 11 16 6 0 49 23 96 50 47 28 88 50 92
50 15 0 81 52 81 64 0 17 -59 111 -89 144 -15 16 -28 21 -39 17 -9 -4 -33 -14
-52 -21 -19 -7 -60 -23 -90 -35 -30 -11 -76 -26 -102 -33 -25 -6 -50 -14 -54
-19 -11 -11 -44 -9 -44 3 0 6 9 10 20 10 11 0 20 6 20 13 0 12 23 28 110 75
108 59 150 91 150 115 0 13 -5 28 -11 34 -12 12 -25 34 -55 91 -18 36 -41 52
-63 44z m2 -649 c-7 -2 -19 -2 -25 0 -7 3 -2 5 12 5 14 0 19 -2 13 -5z"/>
<path d="M5465 5319 c-75 -30 -171 -78 -255 -127 -41 -24 -84 -48 -95 -53 -11
-5 -27 -13 -35 -18 -8 -6 -55 -33 -105 -61 -49 -28 -97 -55 -105 -60 -8 -5
-28 -16 -45 -25 -16 -8 -57 -30 -90 -50 -33 -19 -69 -39 -80 -44 -41 -18 -125
-113 -136 -154 -16 -58 -4 -119 29 -149 57 -52 83 -62 157 -62 92 1 172 30
322 115 66 38 73 59 38 109 -43 62 -68 63 -165 5 -68 -41 -105 -51 -125 -35
-24 20 13 61 97 105 40 21 98 52 129 68 32 17 64 27 73 24 8 -3 28 -25 43 -47
43 -64 84 -110 97 -110 7 0 33 11 57 24 24 14 66 37 94 51 27 15 67 39 90 53
22 15 48 31 57 37 9 5 38 23 65 39 114 69 193 164 193 232 0 46 -44 125 -80
144 -33 18 -170 11 -225 -11z m45 -179 c9 -17 3 -25 -41 -60 -28 -22 -57 -40
-64 -40 -7 0 -18 -7 -25 -16 -8 -8 -25 -14 -39 -12 -39 5 -42 51 -4 71 15 8
54 28 87 46 68 37 72 37 86 11z"/>
<path d="M5794 5042 c-17 -15 -73 -61 -125 -102 -52 -40 -96 -76 -99 -79 -5
-6 -169 -138 -237 -191 -17 -14 -109 -86 -204 -160 -95 -74 -249 -193 -343
-263 -94 -71 -175 -132 -180 -137 -13 -13 12 -65 66 -140 122 -166 159 -210
178 -210 18 0 48 11 125 46 17 7 42 16 58 20 15 3 30 10 33 15 3 5 13 9 22 9
9 1 35 9 57 20 22 11 47 19 56 20 8 0 19 4 25 9 5 5 38 19 74 31 60 20 105 39
185 75 27 12 623 267 705 301 19 9 47 22 62 30 14 7 32 14 40 14 20 0 35 13
42 35 6 20 -4 36 -62 104 -12 14 -42 54 -65 88 -48 72 -61 76 -128 38 -24 -14
-51 -27 -59 -31 -53 -20 -75 -31 -445 -216 -66 -33 -133 -66 -150 -73 -16 -7
-42 -18 -57 -25 -14 -7 -32 -10 -40 -7 -7 2 -2 8 15 12 15 4 27 13 27 21 0 8
4 14 8 14 4 0 17 7 27 15 25 20 111 81 172 123 26 18 107 76 178 128 72 51
157 111 189 131 87 56 109 79 100 106 -7 21 -51 85 -95 136 -11 13 -35 46 -52
73 -37 56 -59 61 -103 20z"/>
<path d="M6078 4839 c-5 -15 61 -105 92 -126 16 -11 21 -9 39 16 34 47 28 67
-26 91 -66 29 -100 35 -105 19z"/>
<path d="M6454 4672 c-6 -4 -17 -19 -25 -35 -8 -15 -31 -59 -53 -99 -38 -72
-38 -72 -20 -102 28 -49 85 -109 131 -138 24 -15 43 -34 44 -43 5 -91 1 -102
-28 -86 -47 27 -104 42 -175 48 -64 5 -89 2 -145 -17 -83 -27 -181 -75 -271
-132 -81 -52 -69 -44 -271 -165 -90 -54 -186 -111 -215 -127 -28 -15 -58 -34
-67 -42 -8 -8 -20 -14 -26 -14 -16 0 -153 -130 -153 -145 0 -7 -6 -18 -14 -24
-25 -21 -37 -128 -23 -201 23 -114 142 -266 258 -326 51 -27 62 -28 174 -28
119 -1 121 0 195 37 41 21 100 55 130 77 30 22 79 54 109 72 29 18 64 40 76
48 13 8 60 38 105 65 45 28 92 57 105 65 13 8 45 28 72 44 191 115 270 178
322 258 39 60 41 66 41 143 0 67 -4 88 -25 125 -52 93 -52 79 3 192 119 244
92 412 -80 496 -127 62 -151 70 -174 54z m-75 -776 c16 -17 22 -33 19 -57 -3
-31 -11 -39 -110 -99 -59 -36 -133 -83 -165 -105 -32 -22 -66 -44 -75 -50 -96
-57 -356 -214 -376 -227 -57 -37 -102 -58 -123 -58 -29 0 -69 37 -69 64 0 19
65 96 82 96 4 0 27 13 51 30 24 16 55 34 68 40 13 6 38 19 54 30 17 11 37 23
45 27 8 4 26 14 40 24 14 9 106 70 204 135 283 186 311 197 355 150z"/>
<path d="M4054 4597 c-95 -49 -163 -82 -329 -157 -135 -61 -151 -68 -248 -114
-54 -25 -101 -46 -104 -46 -3 0 -21 -9 -39 -21 l-34 -20 30 -58 c16 -32 40
-72 55 -89 l25 -30 93 39 c91 40 111 49 257 116 434 202 516 242 536 264 14
15 13 21 -5 58 -34 65 -79 111 -110 110 -14 0 -71 -24 -127 -52z"/>
<path d="M4025 4225 c-22 -7 -96 -40 -165 -73 -157 -75 -217 -102 -227 -102
-4 0 -28 -17 -51 -38 -35 -29 -46 -46 -52 -82 -30 -164 109 -340 269 -340 80
0 191 51 191 87 0 22 -69 122 -96 140 -21 13 -27 13 -56 -2 -73 -38 -118 -36
-118 5 0 22 35 49 104 79 62 27 90 27 105 -1 29 -56 91 -150 114 -175 11 -13
30 -23 41 -23 30 0 218 97 264 135 54 47 72 120 47 194 -23 69 -122 174 -185
195 -53 19 -130 19 -185 1z m166 -197 c10 -19 8 -25 -17 -45 -31 -24 -85 -39
-103 -28 -25 15 -11 53 27 73 49 27 79 27 93 0z"/>
<path d="M3360 3958 c-11 -18 -20 -38 -20 -44 0 -14 115 -94 135 -94 22 0 29
20 11 33 -8 7 -30 39 -48 71 -18 33 -38 61 -45 63 -7 3 -22 -10 -33 -29z"/>
<path d="M3198 3768 c-30 -48 -30 -59 4 -89 17 -16 38 -29 45 -29 7 0 13 -4
13 -10 0 -15 -35 -12 -67 7 -40 22 -77 11 -93 -27 -17 -41 -11 -51 54 -84 31
-16 55 -33 53 -39 -6 -20 -24 -17 -51 8 -36 34 -69 32 -95 -4 -32 -45 -27 -63
29 -99 28 -18 50 -38 50 -45 0 -6 12 -22 28 -35 l27 -23 -41 5 c-48 7 -84 -14
-84 -49 0 -25 39 -60 123 -111 27 -16 59 -36 72 -44 13 -8 45 -28 72 -44 26
-16 69 -45 95 -63 26 -18 52 -33 58 -33 5 0 10 -4 10 -8 0 -4 24 -20 54 -35
74 -37 116 -21 116 44 0 17 -38 47 -132 104 -9 5 -42 26 -73 45 -31 19 -64 40
-73 45 -10 6 -37 24 -62 40 -56 37 -79 51 -107 66 -34 18 -28 29 16 29 30 0
55 -10 103 -42 78 -52 89 -59 158 -100 30 -17 81 -49 113 -71 66 -45 109 -51
150 -21 14 10 31 31 36 47 6 15 13 27 17 27 4 0 29 -13 56 -30 57 -35 73 -37
90 -10 17 27 34 25 60 -5 12 -14 29 -25 38 -25 21 0 821 403 924 466 21 13 16
40 -15 75 -12 13 -33 39 -46 57 -14 17 -32 32 -39 32 -8 0 -57 -22 -109 -50
-52 -27 -99 -50 -104 -50 -5 0 -11 26 -13 57 -4 47 -10 61 -35 84 -18 15 -52
32 -80 37 -70 15 -131 -1 -283 -77 -372 -185 -411 -211 -431 -283 -5 -21 -12
-38 -15 -38 -10 0 -154 102 -154 109 0 3 -17 17 -38 31 -20 14 -94 68 -164
120 -243 181 -235 177 -260 138z m97 -158 c3 -5 -1 -10 -9 -10 -9 0 -16 5 -16
10 0 6 4 10 9 10 6 0 13 -4 16 -10z m1222 -65 c10 -27 -27 -54 -166 -121 -75
-36 -149 -71 -164 -79 -43 -22 -104 -30 -122 -15 -23 19 -2 46 53 70 26 11
108 51 182 89 140 72 204 88 217 56z m-1097 -144 c72 -38 292 -151 335 -174
33 -16 40 -31 35 -67 -3 -21 -1 -22 -55 5 -26 14 -58 25 -70 25 -12 0 -33 8
-46 18 -25 18 -32 22 -109 68 -80 48 -155 98 -162 109 -12 16 -9 45 5 45 6 0
37 -13 67 -29z m526 -149 c6 -4 7 -17 3 -32 -4 -14 -7 -20 -8 -13 -1 6 -10 15
-21 18 -11 3 -20 13 -20 21 0 15 28 19 46 6z"/>
<path d="M6913 3587 c-70 -39 -120 -73 -135 -90 -17 -19 -16 -21 6 -59 13 -22
54 -78 90 -125 l67 -84 68 38 c37 21 81 48 97 60 l29 22 -24 43 c-35 63 -137
194 -156 202 -20 7 -16 8 -42 -7z"/>
<path d="M6618 3416 c-25 -13 -65 -37 -89 -52 -24 -16 -51 -33 -61 -39 -89
-55 -134 -82 -153 -95 -21 -14 -115 -72 -153 -95 -10 -5 -55 -35 -102 -66 -79
-52 -266 -170 -300 -189 -165 -95 -160 -91 -153 -119 8 -35 150 -219 175 -227
20 -6 73 22 175 93 35 23 65 43 67 43 3 0 24 13 48 29 24 16 66 41 93 55 28
15 64 36 80 46 17 11 44 26 60 35 17 8 80 46 140 85 61 39 119 75 130 80 11 6
34 19 50 30 17 11 37 23 45 26 8 4 22 13 30 19 8 7 35 23 60 37 75 40 100 59
100 80 0 11 -29 57 -65 103 -36 45 -65 87 -65 92 0 13 -43 53 -57 53 -5 0 -30
-11 -55 -24z"/>
<path d="M2959 3393 c-18 -4 -39 -44 -39 -71 0 -20 52 -52 84 -52 14 0 28 11
41 35 l19 36 -25 23 c-26 26 -54 36 -80 29z"/>
<path d="M4895 3361 c-36 -9 -243 -109 -251 -122 -3 -5 -11 -9 -19 -9 -27 0
-191 -102 -227 -142 -32 -34 -38 -48 -38 -85 0 -54 22 -85 81 -116 23 -13 44
-27 46 -33 5 -15 -79 -56 -107 -53 -22 4 -25 10 -28 46 -3 45 -55 134 -93 161
-17 11 -23 10 -49 -8 -38 -27 -50 -50 -50 -94 0 -29 -4 -36 -19 -36 -11 0 -23
5 -26 10 -3 6 -20 17 -37 26 -28 14 -31 14 -50 -3 -19 -17 -98 -129 -98 -139
0 -3 -10 -18 -21 -34 -35 -46 -21 -71 72 -127 44 -26 91 -55 104 -63 12 -8 49
-31 80 -50 32 -19 72 -44 89 -55 18 -11 89 -53 157 -94 68 -40 131 -79 139
-86 27 -23 113 -39 210 -39 86 -1 100 2 155 29 33 17 61 38 63 46 3 17 -84
134 -107 144 -7 3 -38 -8 -69 -25 -69 -37 -102 -39 -102 -7 0 13 8 31 18 40
22 20 156 87 174 87 15 0 23 -9 88 -95 47 -64 78 -94 96 -95 24 0 231 112 265
144 21 21 42 55 52 85 15 47 15 55 1 100 -30 91 -119 164 -216 177 -48 7 -120
-6 -173 -31 -110 -51 -212 -102 -290 -146 -49 -27 -104 -56 -120 -64 -43 -19
-63 -45 -83 -106 -9 -30 -22 -54 -28 -54 -19 0 -154 180 -154 205 0 7 24 8 70
4 76 -7 136 5 205 41 165 88 226 121 340 181 179 94 196 103 230 125 17 10 40
24 53 30 28 15 28 42 0 87 -31 50 -52 70 -80 74 -20 3 -24 10 -28 57 -5 45
-11 57 -40 81 -48 39 -109 49 -185 31z m69 -197 c41 -16 -7 -66 -108 -115 -34
-17 -92 -48 -131 -69 -76 -42 -112 -49 -122 -24 -8 21 7 46 38 61 13 7 65 35
116 63 188 102 175 96 207 84z m241 -504 c13 -22 -7 -48 -56 -71 -50 -23 -51
-23 -65 -4 -22 29 -17 41 24 63 40 22 87 28 97 12z"/>
<path d="M2863 3240 c-11 -5 -32 -27 -46 -50 -27 -45 -25 -76 8 -126 13 -20
13 -24 1 -24 -8 0 -16 4 -18 9 -1 5 -16 11 -33 13 -23 2 -32 -2 -42 -24 -8
-15 -22 -29 -32 -33 -10 -3 -23 -17 -30 -31 -9 -22 -9 -31 4 -50 8 -13 20 -24
25 -24 6 0 32 -15 58 -32 52 -36 52 -36 165 -105 43 -26 91 -56 105 -65 15
-10 34 -21 42 -25 8 -4 36 -22 62 -40 26 -18 50 -33 53 -33 2 0 39 -20 81 -45
41 -25 81 -45 88 -45 21 0 46 35 46 63 0 21 -16 36 -97 90 -54 35 -116 74
-138 87 -86 50 -151 95 -177 122 -28 28 -38 78 -16 78 13 0 71 -17 108 -33 14
-6 72 -13 130 -17 108 -7 180 -30 180 -58 0 -16 -39 -7 -56 14 -20 25 -50 16
-70 -21 -25 -46 -15 -61 67 -102 51 -27 75 -33 125 -33 58 0 64 2 83 29 29 40
26 79 -7 132 -68 106 -254 198 -407 200 -81 1 -146 12 -143 24 2 6 17 9 35 7
25 -2 36 3 48 22 10 14 14 33 10 45 -7 24 -77 66 -125 76 -19 3 -42 8 -50 10
-8 2 -25 0 -37 -5z"/>
<path d="M7065 3090 c-100 -21 -146 -43 -400 -193 -148 -87 -286 -169 -305
-181 -19 -13 -69 -45 -110 -72 -126 -81 -192 -145 -230 -221 -21 -40 -25 -62
-25 -133 0 -75 4 -92 30 -144 44 -86 124 -169 199 -205 57 -28 71 -31 162 -31
84 0 113 5 182 29 102 35 322 165 322 189 0 9 -22 45 -48 79 -26 34 -63 84
-82 112 -27 39 -41 51 -62 51 -15 0 -30 -5 -33 -10 -14 -22 -260 -160 -286
-160 -29 0 -69 40 -69 69 0 33 23 55 110 106 36 21 72 44 80 51 45 37 633 374
652 374 39 -1 70 -35 66 -72 -2 -26 -13 -39 -63 -73 -33 -22 -81 -53 -107 -68
-27 -15 -48 -35 -48 -44 0 -19 97 -167 138 -211 22 -23 35 -29 52 -25 39 10
213 132 258 181 90 98 121 214 83 310 -27 69 -116 196 -160 231 -68 53 -211
81 -306 61z"/>
<path d="M3778 3007 c-60 -49 -99 -138 -65 -150 6 -2 9 -8 5 -12 -4 -4 -14 -3
-21 3 -20 17 -58 -26 -50 -56 3 -12 11 -22 18 -22 6 0 22 -9 35 -20 13 -11 29
-20 37 -20 7 0 13 -4 13 -10 0 -5 -11 -10 -25 -10 -14 0 -25 4 -25 9 0 12 -57
41 -80 41 -22 0 -34 -43 -21 -68 14 -27 116 -75 143 -68 30 8 40 16 61 48 20
31 23 88 5 106 -13 13 -9 14 42 13 32 -1 38 4 73 57 54 84 51 97 -40 160 -41
28 -71 28 -105 -1z m82 -87 c0 -10 -3 -21 -7 -23 -11 -6 -53 11 -53 21 0 11
42 31 53 25 4 -2 7 -13 7 -23z"/>
<path d="M2556 2818 c-23 -27 -36 -52 -36 -71 0 -32 56 -117 77 -117 7 0 13
-4 13 -9 0 -5 21 -22 48 -37 26 -15 49 -30 52 -33 3 -3 14 -11 25 -18 69 -42
128 -79 180 -113 111 -72 202 -110 263 -110 90 1 139 80 98 159 -18 33 -86 96
-115 106 -12 3 -21 10 -21 14 0 4 -19 14 -41 21 -41 14 -42 13 -66 -14 -30
-36 -27 -54 17 -84 34 -23 56 -49 48 -58 -7 -6 -67 25 -115 59 -49 35 -52 52
-19 102 27 40 24 72 -8 85 -11 5 -46 27 -76 49 -64 47 -115 72 -187 95 -80 25
-97 21 -137 -26z m223 -143 c13 -14 21 -29 17 -32 -9 -9 -97 37 -91 48 11 17
50 9 74 -16z"/>
<path d="M2473 2659 c-11 -4 -26 -22 -32 -41 -10 -29 -9 -35 9 -50 29 -24 25
-30 -19 -27 -52 4 -84 -23 -78 -64 3 -23 -1 -31 -19 -37 -25 -10 -54 -47 -54
-70 0 -20 37 -55 65 -63 48 -14 91 77 48 102 -10 5 -15 13 -11 17 4 4 55 -17
113 -47 179 -92 341 -173 392 -197 26 -12 66 -33 88 -46 23 -13 57 -27 77 -31
31 -6 38 -3 55 22 34 48 34 61 5 88 -15 14 -31 25 -36 25 -5 0 -30 17 -55 37
-25 21 -50 41 -56 46 -5 4 -48 35 -95 69 -118 86 -242 179 -262 197 -55 51
-110 79 -135 70z m27 -139 c0 -5 -4 -10 -10 -10 -5 0 -10 5 -10 10 0 6 5 10
10 10 6 0 10 -4 10 -10z"/>
<path d="M3530 2639 c-38 -15 -63 -56 -64 -106 -1 -32 4 -47 16 -54 9 -5 25
-17 34 -27 11 -11 33 -17 62 -17 39 0 48 5 78 39 45 52 46 92 4 130 -49 43
-83 53 -130 35z m56 -94 c31 -29 21 -32 -26 -9 -24 12 -29 19 -19 25 18 11 14
13 45 -16z"/>
<path d="M5510 2533 c-36 -20 -83 -47 -105 -60 -22 -12 -50 -27 -62 -33 -28
-12 -31 -51 -6 -80 18 -21 83 -29 83 -10 0 6 4 10 10 10 5 0 3 -17 -6 -40 -15
-38 -15 -41 6 -75 12 -19 27 -35 35 -35 7 0 33 23 57 51 38 43 52 52 94 60 26
5 55 16 63 23 12 13 10 19 -17 46 -23 22 -38 30 -52 25 -11 -3 -28 -2 -37 4
-17 10 -17 10 -1 11 9 0 21 6 25 13 4 7 20 20 36 30 32 21 34 36 6 71 -27 34
-51 32 -129 -11z"/>
<path d="M3840 2476 c-30 -7 -74 -22 -97 -34 -59 -30 -137 -109 -163 -162 -12
-25 -26 -53 -31 -63 -6 -10 -12 -46 -16 -80 -10 -111 45 -225 148 -305 53 -41
359 -228 414 -253 11 -5 27 -13 35 -18 8 -6 74 -44 147 -86 92 -54 130 -81
126 -91 -3 -8 -9 -14 -13 -14 -33 0 -54 -75 -25 -86 28 -11 15 -24 -25 -24
-34 0 -43 -5 -62 -34 -13 -19 -36 -40 -53 -48 -74 -32 -20 -132 82 -151 18 -4
54 -21 81 -39 103 -71 128 -75 164 -27 13 17 40 47 61 67 24 24 39 49 43 72 5
31 0 40 -39 80 -53 55 -142 136 -179 163 -16 12 -28 24 -28 29 0 13 48 9 78
-6 15 -7 60 -19 100 -26 87 -16 193 -1 257 36 72 42 187 177 212 251 9 23 8
42 0 69 -10 34 -9 38 12 53 30 20 176 102 256 142 109 56 120 62 172 95 43 27
52 39 55 66 2 24 10 36 33 48 85 43 168 95 184 115 9 13 28 25 42 27 32 4 36
34 8 64 -27 29 -46 31 -54 4 -4 -12 -15 -20 -29 -20 -13 0 -45 -12 -72 -26
-27 -15 -65 -35 -85 -45 -20 -11 -46 -30 -59 -44 -12 -13 -37 -27 -54 -30 -17
-4 -48 -18 -68 -31 l-37 -24 -20 26 c-11 14 -22 38 -26 53 -3 16 -17 39 -31
52 -36 34 -132 34 -186 1 -21 -13 -70 -39 -110 -59 -99 -48 -125 -68 -148
-114 -19 -36 -44 -51 -52 -30 -6 17 -123 111 -138 110 -8 0 -24 -14 -36 -32
-11 -18 -46 -69 -77 -115 -67 -99 -66 -106 22 -151 88 -44 102 -53 147 -88 53
-41 60 -73 24 -108 -29 -28 -71 -33 -110 -12 -60 32 -129 71 -185 103 -33 19
-73 41 -90 50 -16 8 -43 23 -60 34 -16 11 -43 26 -60 35 -32 17 -63 35 -107
63 -14 9 -73 45 -130 79 -117 70 -150 100 -150 139 0 33 42 74 75 73 25 0 76
-25 167 -81 34 -21 69 -38 78 -38 27 0 171 195 172 233 0 37 -200 144 -305
163 -85 16 -114 16 -185 0z m1400 -409 c0 -25 -14 -36 -120 -89 -77 -38 -123
-47 -136 -26 -9 14 9 27 125 90 98 54 131 60 131 25z m-810 -937 c111 -38 170
-92 115 -106 -37 -9 -185 82 -185 114 0 15 4 14 70 -8z"/>
<path d="M3375 2427 c-53 -52 -70 -111 -35 -122 32 -10 23 -22 -22 -28 -45 -6
-99 -52 -118 -101 -9 -24 -5 -29 39 -64 27 -21 63 -45 81 -52 30 -13 34 -12
50 10 18 23 17 25 -5 54 -21 28 -22 33 -9 50 8 11 14 37 14 58 0 42 9 46 45
22 13 -8 38 -14 57 -12 29 3 33 7 36 34 2 25 -1 33 -20 39 -19 7 -15 9 24 12
57 5 76 23 60 58 -7 16 -20 25 -33 25 -12 0 -37 11 -55 25 -44 33 -68 32 -109
-8z"/>
<path d="M7530 2349 c-30 -11 -71 -27 -90 -36 -28 -13 -319 -180 -370 -213 -8
-5 -44 -26 -80 -47 -36 -21 -72 -42 -82 -48 -9 -5 -43 -25 -75 -44 -252 -147
-347 -305 -282 -474 19 -49 40 -78 104 -142 101 -102 154 -125 284 -125 84 0
184 24 218 52 7 6 19 8 28 5 13 -5 13 -10 0 -41 l-15 -35 37 -26 c21 -14 45
-25 54 -25 9 0 24 -11 33 -25 16 -24 15 -25 -3 -25 -18 0 -63 18 -111 45 -34
20 -43 19 -67 -7 -34 -37 -33 -68 3 -88 143 -81 168 -86 209 -43 14 15 25 33
25 40 0 7 15 30 34 50 40 45 51 76 34 91 -13 10 -121 72 -165 94 -13 6 -23 14
-23 17 0 4 20 18 45 31 25 14 52 34 59 45 14 21 2 40 -134 218 -25 32 -57 35
-91 9 -118 -90 -213 -116 -245 -67 -9 13 -13 33 -9 44 7 22 103 91 190 135 17
9 54 29 84 46 30 16 62 30 71 30 10 0 34 -21 54 -47 19 -27 50 -67 68 -90 18
-23 49 -65 68 -94 19 -28 47 -65 62 -83 l26 -31 69 34 c111 56 304 171 363
217 96 73 131 126 151 221 11 54 11 69 -4 115 -15 48 -67 140 -129 225 -70 99
-257 142 -398 92z m197 -301 c45 -43 26 -84 -61 -129 -26 -13 -66 -34 -89 -46
l-42 -22 -37 41 c-21 22 -38 46 -38 54 0 12 70 60 151 103 47 26 88 25 116 -1z"/>
<path d="M2454 2341 c-24 -17 -44 -50 -39 -63 4 -9 27 -29 53 -45 82 -53 136
-87 154 -98 38 -23 174 -107 192 -118 11 -7 42 -27 70 -44 61 -39 90 -42 112
-8 19 29 11 61 -19 76 -12 7 -85 53 -162 103 -180 117 -176 114 -205 127 -13
5 -27 13 -30 17 -20 27 -110 65 -126 53z"/>
<path d="M2207 2284 c-42 -36 -35 -58 28 -94 59 -34 71 -61 35 -80 -27 -14
-25 -49 3 -88 28 -37 53 -57 120 -98 27 -16 59 -36 72 -44 13 -8 78 -48 145
-88 101 -61 130 -73 167 -74 37 0 49 4 64 23 10 13 19 30 19 38 0 8 11 28 24
45 13 17 26 41 30 52 7 23 -8 36 -94 82 -25 13 -64 37 -88 53 -24 16 -45 29
-48 29 -3 0 -17 8 -32 19 -15 10 -52 34 -82 54 -30 19 -86 54 -125 79 -38 25
-77 48 -85 52 -23 10 -56 30 -71 42 -28 22 -55 21 -82 -2z m322 -272 c35 -28
105 -73 157 -100 13 -7 24 -17 24 -23 0 -15 -36 -11 -50 6 -7 8 -18 15 -25 15
-6 0 -22 9 -35 20 -13 11 -27 20 -31 20 -14 0 -129 72 -129 81 0 19 54 7 89
-19z m201 -152 c0 -5 -2 -10 -4 -10 -3 0 -8 5 -11 10 -3 6 -1 10 4 10 6 0 11
-4 11 -10z"/>
<path d="M5785 2151 c-121 -66 -166 -94 -174 -108 -12 -22 6 -71 27 -75 21 -4
78 14 94 30 7 7 20 12 30 12 10 0 18 4 18 9 0 14 41 24 52 13 12 -12 -16 -31
-145 -99 -26 -14 -29 -13 -41 2 -8 12 -19 15 -39 10 -34 -9 -40 -19 -39 -62 1
-34 -11 -45 -22 -18 -10 27 -57 16 -145 -32 -47 -26 -95 -53 -106 -60 -11 -7
-33 -19 -50 -28 -16 -9 -43 -24 -60 -35 -16 -11 -40 -24 -52 -30 -34 -14 -30
-61 8 -105 17 -19 39 -35 49 -35 32 0 207 93 348 183 63 41 77 68 50 95 -6 6
-8 15 -4 19 4 5 14 -1 22 -12 21 -28 82 -26 102 3 8 12 22 22 32 22 9 0 37 11
61 25 24 13 59 31 76 39 40 18 83 60 83 80 0 9 -19 38 -42 65 -24 28 -53 64
-66 81 -26 34 -26 34 -67 11z"/>
<path d="M3120 2058 c-56 -67 -220 -309 -220 -325 0 -7 12 -21 26 -32 l27 -21
21 23 c11 13 34 42 50 65 27 40 45 49 53 26 2 -6 -12 -30 -30 -55 -48 -63 -50
-75 -20 -98 36 -29 48 -19 138 109 145 206 161 243 108 256 -23 6 -32 0 -74
-47 -26 -30 -51 -50 -55 -46 -9 8 36 97 48 97 15 0 8 27 -10 43 -22 20 -47 22
-62 5z"/>
<path d="M3311 1883 c-95 -129 -143 -213 -148 -258 -5 -39 -2 -47 25 -75 25
-24 39 -30 76 -30 37 0 50 5 78 34 38 39 58 63 58 71 0 6 40 65 50 75 21 19
80 122 80 139 0 47 -81 52 -102 6 -6 -14 -15 -25 -20 -25 -4 0 -8 -7 -8 -15 0
-9 -7 -18 -15 -21 -8 -4 -15 -12 -15 -19 0 -6 -9 -20 -20 -30 -11 -10 -20 -24
-20 -30 0 -7 -7 -15 -15 -19 -8 -3 -15 -12 -15 -20 0 -7 -11 -21 -25 -30 -14
-9 -25 -12 -25 -6 0 5 5 10 10 10 6 0 10 7 10 15 0 14 27 59 55 91 6 6 17 22
25 34 8 12 23 33 33 45 9 13 17 27 17 31 0 4 6 15 14 23 22 25 3 61 -32 61
-23 0 -36 -11 -71 -57z"/>
<path d="M5955 1912 c-11 -4 -48 -23 -82 -42 -86 -47 -95 -95 -28 -148 14 -11
25 -24 25 -30 0 -5 9 -21 21 -36 16 -20 27 -25 43 -20 25 8 189 86 196 93 3 4
17 12 33 20 66 35 33 107 -44 95 -35 -6 -39 -4 -45 20 -11 47 -61 66 -119 48z
m72 -107 c4 -14 -95 -58 -113 -51 -18 7 -9 26 12 26 8 0 14 4 14 9 0 11 49 30
69 28 8 -1 16 -7 18 -12z"/>
<path d="M3560 1783 c-83 -109 -130 -175 -130 -183 0 -6 -5 -10 -10 -10 -6 0
-14 -8 -17 -17 -4 -10 -20 -37 -35 -59 -33 -49 -33 -53 -10 -70 25 -20 40 -17
69 12 32 32 41 24 24 -22 -16 -43 -3 -58 41 -50 24 5 30 1 42 -29 20 -47 55
-48 90 -2 76 101 206 292 206 305 0 6 -12 20 -26 31 -28 22 -98 29 -109 11
-11 -18 -26 -10 -24 13 4 42 -1 52 -41 75 -21 12 -41 22 -44 22 -2 0 -14 -12
-26 -27z"/>
<path d="M5640 1692 c-19 -10 -46 -25 -60 -34 -14 -9 -54 -32 -90 -51 -73 -38
-105 -82 -90 -122 5 -12 4 -28 -1 -36 -5 -9 -9 -10 -9 -2 0 6 -14 22 -31 34
-31 22 -32 22 -45 4 -8 -10 -14 -31 -14 -46 0 -37 48 -122 98 -173 78 -79 146
-78 282 2 41 24 84 48 95 54 11 5 29 14 40 21 11 7 50 29 88 50 48 27 67 44
67 58 0 27 -37 76 -77 99 -25 14 -35 30 -44 65 -21 84 -118 120 -209 77z m126
-181 c-22 -24 -137 -81 -165 -81 -12 0 -21 6 -21 15 0 8 0 18 -1 22 -1 8 115
72 151 83 16 5 30 3 39 -6 13 -12 12 -16 -3 -33z m-256 -148 c0 -9 -50 -21
-69 -16 -17 4 -21 13 -21 45 l0 39 45 -32 c25 -18 45 -34 45 -36z"/>
<path d="M6146 1701 c-4 -5 -27 -19 -54 -32 -122 -59 -151 -99 -97 -135 24
-16 28 -16 63 2 20 10 44 24 52 30 8 6 30 16 48 22 26 9 32 8 32 -4 0 -13 -84
-73 -105 -74 -5 0 -18 -11 -27 -24 -17 -24 -17 -25 12 -56 25 -27 34 -31 61
-25 32 7 32 7 25 -27 -12 -67 57 -168 125 -183 28 -6 36 -3 53 17 12 13 40 30
64 37 114 32 83 154 -55 218 -46 21 -52 27 -43 43 18 34 11 62 -25 94 -19 18
-35 37 -35 43 0 6 -9 22 -21 37 -20 26 -62 35 -73 17z m127 -238 c-7 -2 -19
-2 -25 0 -7 3 -2 5 12 5 14 0 19 -2 13 -5z m25 -160 c2 -9 -7 -13 -27 -13 -30
0 -39 9 -24 24 11 10 46 3 51 -11z"/>
<path d="M2865 1563 c-74 -93 -108 -159 -96 -182 6 -11 21 -23 33 -27 18 -5
29 1 54 30 17 20 34 36 38 36 11 0 6 -28 -11 -58 -17 -29 -17 -31 1 -51 11
-12 27 -21 37 -21 21 0 79 67 79 93 0 10 18 35 40 57 62 61 54 94 -34 149 -71
44 -88 41 -141 -26z m105 -64 c0 -5 -4 -9 -10 -9 -5 0 -10 7 -10 16 0 8 5 12
10 9 6 -3 10 -10 10 -16z"/>
<path d="M3772 1455 c-116 -117 -142 -148 -137 -165 10 -31 43 -45 63 -27 9 8
26 17 37 19 18 3 20 -3 20 -42 0 -40 3 -45 29 -55 33 -11 36 -9 100 109 129
237 137 265 86 291 -16 8 -35 15 -42 15 -7 0 -77 -65 -156 -145z"/>
<path d="M4084 1478 c-11 -13 -30 -39 -44 -58 -13 -19 -28 -39 -32 -45 -27
-33 -107 -146 -126 -176 -29 -48 -28 -67 4 -80 31 -11 68 8 79 41 3 11 11 20
17 20 10 0 7 -34 -7 -91 -6 -21 -1 -28 29 -44 l36 -20 25 30 c13 17 41 55 62
85 21 30 66 92 100 138 67 88 75 115 43 132 -29 15 -58 4 -75 -31 -9 -16 -22
-29 -30 -29 -8 0 -15 -7 -15 -16 0 -8 -5 -12 -11 -9 -7 5 -5 15 5 31 9 13 16
45 16 72 0 43 -3 50 -25 60 -32 15 -28 16 -51 -10z"/>
<path d="M3128 1463 c-14 -16 -48 -63 -77 -105 -60 -88 -66 -131 -20 -136 29
-3 30 -2 125 127 61 83 68 116 28 131 -14 6 -26 10 -28 10 -1 0 -14 -12 -28
-27z"/>
<path d="M3248 1392 c-30 -20 -91 -100 -114 -152 -23 -50 -9 -80 48 -107 25
-12 49 -27 53 -32 13 -23 44 -9 74 32 17 23 36 48 42 56 9 10 9 18 0 33 -9 14
-9 19 1 22 7 2 21 7 31 10 9 3 22 17 28 30 17 37 -5 83 -52 107 -47 24 -76 24
-111 1z m86 -104 c5 -22 3 -28 -11 -28 -18 0 -53 28 -53 42 0 11 43 28 51 19
4 -3 9 -18 13 -33z m-94 -89 c0 -5 -7 -9 -15 -9 -15 0 -20 12 -9 23 8 8 24 -1
24 -14z"/>
<path d="M5890 1311 c-30 -16 -75 -40 -100 -54 -25 -14 -66 -36 -92 -50 -80
-43 -148 -91 -148 -105 0 -32 65 -112 91 -112 10 0 37 13 61 29 99 66 232 134
255 129 22 -5 21 -39 -2 -53 -10 -5 -36 -24 -60 -42 -23 -18 -62 -42 -86 -54
-116 -59 -129 -80 -88 -142 41 -62 58 -64 136 -15 37 22 76 44 87 49 12 6 30
15 42 22 151 88 183 124 164 181 -11 34 -49 75 -87 95 -13 6 -23 19 -23 28 0
30 -67 122 -90 123 -3 0 -30 -13 -60 -29z"/>
<path d="M3448 1233 c-113 -159 -128 -196 -85 -212 29 -11 62 5 76 35 6 13 17
24 26 24 20 0 19 -8 -5 -48 -21 -34 -27 -72 -11 -72 5 0 16 -3 25 -6 17 -7 44
22 131 141 22 30 42 55 45 55 3 0 10 -12 17 -26 15 -32 3 -62 -57 -144 -45
-62 -48 -79 -21 -104 30 -28 53 -13 122 79 73 97 96 105 91 35 -2 -25 1 -54 7
-65 24 -50 31 -89 19 -96 -18 -11 -28 -1 -28 30 0 21 -7 31 -27 40 -23 11 -29
10 -40 -5 -21 -29 -15 -71 16 -106 24 -27 36 -32 87 -35 32 -2 65 0 73 6 9 6
16 33 19 70 4 59 5 61 33 61 31 0 59 31 59 65 -1 43 -65 85 -130 85 -20 0 -34
9 -50 33 -30 42 -86 78 -133 85 -28 3 -41 11 -47 27 -14 38 -70 48 -92 17 -7
-11 -24 -25 -37 -31 l-24 -13 27 34 c40 53 30 88 -25 88 -21 0 -35 -11 -61
-47z m469 -310 c-4 -17 -4 -17 -12 0 -4 9 -4 25 0 35 8 16 8 16 12 0 3 -10 3
-26 0 -35z"/>
<path d="M6495 1242 c-34 -7 -53 -31 -60 -78 -3 -24 -9 -44 -12 -44 -2 0 -13
10 -22 21 -12 16 -23 20 -39 15 -30 -10 -38 -48 -18 -87 17 -35 10 -49 -26
-49 -10 0 -25 -12 -35 -26 -16 -24 -16 -27 0 -36 9 -5 17 -16 17 -23 0 -42 67
-68 111 -45 18 10 18 13 4 46 -18 44 -12 56 23 48 51 -11 53 -13 44 -31 -14
-26 14 -106 48 -138 20 -20 39 -27 72 -28 56 -2 78 15 78 60 0 40 26 56 46 29
7 -10 22 -16 36 -14 19 2 23 10 26 43 4 51 -38 105 -103 131 -40 17 -45 22
-45 52 0 48 -24 96 -61 124 -40 30 -57 36 -84 30z m65 -137 c0 -28 6 -37 29
-50 29 -14 29 -16 15 -42 -7 -16 -14 -54 -14 -85 0 -32 -4 -58 -10 -58 -5 0
-10 15 -10 34 0 25 -6 38 -24 50 -22 14 -24 19 -15 48 5 18 9 59 9 91 0 36 4
56 10 52 6 -3 10 -22 10 -40z"/>
<path d="M4111 1049 c-27 -25 -24 -49 7 -65 12 -6 33 -20 45 -31 22 -19 57
-42 147 -99 102 -64 130 -70 148 -29 19 41 15 48 -54 90 -36 22 -87 54 -114
72 -27 17 -60 35 -72 39 -13 3 -35 15 -50 25 -32 23 -30 23 -57 -2z"/>
<path d="M7010 999 c-63 -38 -110 -107 -110 -160 0 -31 6 -39 63 -77 87 -59
116 -57 177 7 58 62 80 122 59 159 -13 23 -120 92 -144 92 -5 0 -26 -10 -45
-21z m73 -126 c38 -26 49 -53 21 -53 -30 0 -104 51 -104 72 0 24 27 18 83 -19z"/>
<path d="M6070 873 c-177 -105 -234 -145 -238 -164 -4 -20 65 -109 84 -109 9
0 34 13 57 28 57 39 263 162 271 162 3 0 22 10 41 23 29 18 34 26 29 47 -3 14
-12 32 -20 40 -8 8 -20 22 -27 31 -27 37 -49 30 -197 -58z"/>
<path d="M3323 928 c-12 -13 -23 -36 -25 -53 -2 -24 -8 -30 -28 -30 -22 0 -25
-5 -28 -40 -4 -59 31 -90 101 -90 47 -1 52 -3 50 -22 -3 -28 45 -69 97 -83 22
-6 42 -15 45 -20 3 -6 18 -10 33 -10 19 -1 33 -10 47 -32 11 -17 25 -31 30
-31 6 1 17 22 25 48 15 45 24 57 84 111 28 25 29 27 11 40 -10 8 -28 14 -38
14 -11 0 -30 11 -43 25 -35 38 -54 33 -54 -14 0 -32 -6 -44 -32 -66 -56 -47
-74 -52 -97 -24 -31 37 -27 51 16 47 43 -3 52 12 28 48 -21 32 -8 51 23 35 15
-8 23 -7 32 4 16 19 2 37 -45 59 -33 16 -36 16 -65 -5 -16 -13 -30 -28 -30
-33 -1 -6 -12 -24 -25 -40 l-24 -30 -6 26 c-10 40 -2 63 22 66 53 8 52 68 -2
102 -42 26 -77 25 -102 -2z"/>
<path d="M4083 880 c-13 -11 -23 -29 -23 -39 0 -10 -11 -30 -25 -45 -14 -15
-25 -34 -25 -43 0 -17 38 -56 64 -66 9 -4 16 -11 16 -17 0 -15 -37 -12 -54 5
-8 8 -18 15 -21 15 -4 0 -18 9 -32 20 -35 27 -79 26 -94 -2 -6 -13 -26 -39
-44 -58 -54 -58 -54 -72 7 -132 65 -65 107 -88 158 -88 29 0 42 -5 50 -20 7
-13 21 -20 41 -20 66 0 130 107 99 166 -18 33 -6 40 37 25 35 -13 38 -12 60
13 22 26 31 56 16 56 -5 0 -20 10 -35 23 -15 12 -55 40 -90 62 -58 37 -61 40
-36 43 22 3 68 -17 88 -38 14 -14 68 -48 87 -54 26 -8 63 23 63 53 0 37 -170
147 -241 157 -36 5 -48 2 -66 -16z m49 -248 c-19 -6 -44 6 -37 18 4 7 14 6 28
-2 14 -7 17 -13 9 -16z m49 -25 c-1 -12 -15 -9 -19 4 -3 6 1 10 8 8 6 -3 11
-8 11 -12z m-173 -41 c14 -15 19 -27 12 -31 -5 -3 -13 0 -16 8 -3 9 -17 18
-30 21 -14 4 -22 11 -19 16 10 16 29 11 53 -14z m112 -86 c0 -5 -7 -10 -16
-10 -8 0 -12 5 -9 10 3 6 10 10 16 10 5 0 9 -4 9 -10z"/>
<path d="M6782 807 c-25 -27 -29 -69 -7 -87 22 -18 9 -30 -34 -30 -38 0 -71
-24 -84 -62 -5 -13 -12 -15 -41 -8 -36 8 -36 8 -194 -151 l-159 -159 -31 12
c-41 16 -86 1 -90 -29 -5 -35 47 -106 97 -133 48 -25 82 -29 124 -16 23 7 96
30 162 51 66 21 136 43 155 51 19 7 48 15 64 19 32 7 86 41 86 55 0 16 -80
110 -94 110 -8 0 -46 -16 -85 -35 -39 -19 -77 -35 -85 -35 -8 0 -18 -4 -21
-10 -3 -6 -13 -10 -21 -10 -14 0 22 38 120 123 l48 43 -16 32 c-9 17 -16 36
-16 42 0 6 29 10 74 10 64 0 84 -5 147 -35 41 -19 78 -35 84 -35 16 0 53 45
60 72 5 19 -3 29 -44 56 -52 33 -61 43 -114 127 -37 58 -55 65 -85 32z"/>
<path d="M6440 794 c-19 -8 -47 -14 -61 -12 -38 4 -79 -21 -86 -52 -5 -26 -22
-38 -168 -125 -113 -68 -125 -80 -125 -130 0 -41 32 -100 72 -133 25 -20 84
19 92 62 7 37 30 58 136 121 50 31 73 39 106 37 50 -2 94 27 94 62 0 14 10 28
25 36 45 24 40 61 -19 128 -23 26 -21 26 -66 6z"/>
<path d="M3720 508 c-28 -30 -25 -56 8 -70 15 -7 34 -19 44 -28 9 -8 38 -30
65 -48 107 -74 158 -103 184 -109 24 -5 30 -1 42 28 13 33 13 35 -22 63 -20
15 -60 44 -88 63 -29 19 -53 38 -53 41 0 4 -21 16 -48 26 -26 11 -58 28 -71
38 -30 23 -36 23 -61 -4z"/>
<path d="M3616 373 c-13 -25 -12 -30 11 -60 l25 -33 -26 -30 c-24 -29 -25 -33
-11 -60 24 -46 166 -145 226 -157 24 -5 36 0 60 23 16 15 29 32 29 37 0 4 12
24 26 42 43 57 50 50 -199 213 -90 59 -120 65 -141 25z m204 -175 c31 -25 33
-28 13 -28 -33 0 -93 39 -93 60 0 16 3 17 23 7 12 -7 38 -24 57 -39z"/>
</g>
</svg>
